<svg width="572" height="680" viewBox="0 0 572 680" fill="none" xmlns="http://www.w3.org/2000/svg">
<path fill-rule="evenodd" clip-rule="evenodd" d="M406.868 -94.1475L407.517 -96.5596C406.587 -96.4926 405.663 -96.4192 404.745 -96.3391L400.762 -100.451C398.633 -102.648 395.126 -102.704 392.929 -100.575L385.604 -93.4795C372.704 -90.6328 361.109 -85.9501 350.691 -78.8903C330.584 -65.2642 316.588 -43.9544 305.288 -14.7086C293.625 15.477 290.588 53.4806 289.6 88.3721C289.23 101.413 289.139 113.891 289.054 125.554C288.902 146.188 288.77 164.269 287.15 178.402C284.915 197.89 275.68 208.607 265.469 212.24C255.122 215.922 239.433 213.879 221.299 198.487L220.893 198.143C200.807 181.093 167.706 152.996 130.982 136.966C99.5133 123.229 63.2802 117.588 30.1569 137.019L17.35 184.579C20.5338 177.969 24.3022 172.583 28.6431 168.56C56.1639 143.055 88.4026 145.082 121.192 159.395C154.344 173.866 185.012 199.788 205.462 217.145C227.823 236.125 252.487 242.836 273.674 235.297C294.998 227.709 308.478 207.23 311.463 181.19C313.224 165.83 313.385 145.396 313.555 123.689L313.555 123.689L313.555 123.687L313.555 123.685L313.555 123.685C313.644 112.312 313.736 100.59 314.063 89.065C315.047 54.3204 318.098 20.0414 328.117 -5.88826C338.498 -32.7577 350.08 -48.9136 364.42 -58.6311C374.073 -65.1731 385.759 -69.3281 400.713 -71.2906L400.97 -72.2448C414.004 -65.7432 428.118 -57.9943 441.876 -49.2466C451.255 -43.2832 460.332 -36.941 468.711 -30.3104L406.868 -94.1475ZM4.72611 250.645C4.98176 241.556 5.63008 232.519 6.77414 223.853L-7.13066 275.49C-8.32068 270.536 -9.2422 265.249 -9.90155 259.584L-40.6623 250.816C-39.1177 277.771 -33.0551 300.825 -20.0837 320.582C-3.79005 345.4 22.0034 362.885 57.544 377.218C94.2266 392.011 140.618 396.403 183.243 398.234C199.175 398.919 214.423 399.254 228.675 399.567C253.89 400.12 275.986 400.605 293.229 402.838C317.007 405.917 329.939 417.396 334.197 429.94C338.512 442.652 335.734 461.79 316.599 483.677L316.171 484.166C294.974 508.41 260.044 548.361 239.796 592.957C222.446 631.171 214.904 675.352 238.059 716.181L295.955 732.683C287.933 728.674 281.418 723.972 276.579 718.595C245.901 684.504 248.955 645.14 267.033 605.323C285.311 565.065 317.539 528.047 339.118 503.365C362.714 476.376 371.357 446.353 362.522 420.325C353.63 394.128 328.842 377.288 297.07 373.173C278.331 370.747 253.36 370.185 226.835 369.589L226.834 369.589L226.832 369.589L226.829 369.589L226.824 369.589C212.927 369.276 198.604 368.954 184.527 368.349C142.082 366.525 100.243 362.184 68.7318 349.476C38.4785 337.276 19.4835 323.98 7.61331 308.015C5.65304 292.202 4.13584 271.633 4.72611 250.645ZM553.887 591.013L531.631 568.04C538.941 551.117 541.902 536.25 541.085 522.02C539.871 500.882 530.173 478.605 508.479 450.874C487.544 424.114 453.48 399.434 417.633 376.632C405.745 369.069 393.502 361.629 381.624 354.411L381.617 354.406L381.615 354.405C358.941 340.626 337.596 327.654 322.58 316.183C297.122 296.734 284.076 269.755 289.473 242.622C294.836 215.664 317.332 193.985 351.262 182.409C382.291 171.823 428.71 155.879 464.668 130.154C500.233 104.71 522.56 72.147 513.037 27.2846C511.535 20.2084 508.243 12.8789 503.301 5.39603L545.189 48.6351C544.828 95.5716 516.206 130.063 482.073 154.482C442.24 182.978 392.014 200.112 361.535 210.51L360.92 210.72C333.405 220.107 321.43 235.292 318.811 248.458C316.227 261.45 321.687 277.857 340.74 292.413C354.556 302.968 373.449 314.436 395.009 327.523L395.013 327.525C407.198 334.922 420.235 342.835 433.688 351.393C469.686 374.291 507.667 401.29 532.038 432.443C555.651 462.626 569.246 490.665 570.948 520.305C572.303 543.901 566.026 566.898 553.887 591.013ZM343.764 746.31C354.335 747.863 365.368 748.817 376.472 749.292C404.12 750.475 431.216 748.653 451.078 746.282L444.526 769.27C443.687 772.212 440.622 773.918 437.68 773.079L343.764 746.31Z" fill="white" fill-opacity="0.43"/>
</svg>
