<svg width="24" height="24" viewBox="0 0 24 24" fill="none" xmlns="http://www.w3.org/2000/svg">
<path d="M21 0H3C1.3455 0 0 1.3455 0 3V16.5C0 18.1545 1.3455 19.5 3 19.5H4.5V23.25C4.5 23.541 4.668 23.8065 4.932 23.9295C5.0325 23.976 5.142 24 5.25 24C5.4225 24 5.5935 23.94 5.73 23.826L10.9215 19.5H21C22.6545 19.5 24 18.1545 24 16.5V3C24 1.3455 22.6545 0 21 0ZM12.75 12H6.75C6.336 12 6 11.664 6 11.25C6 10.836 6.336 10.5 6.75 10.5H12.75C13.164 10.5 13.5 10.836 13.5 11.25C13.5 11.664 13.164 12 12.75 12ZM17.25 7.5H6.75C6.336 7.5 6 7.164 6 6.75C6 6.336 6.336 6 6.75 6H17.25C17.664 6 18 6.336 18 6.75C18 7.164 17.664 7.5 17.25 7.5Z" fill="#2FD8E4"/>
</svg>
