<svg width="97" height="27" viewBox="0 0 97 27" fill="none" xmlns="http://www.w3.org/2000/svg">
<path d="M1 14.1031C4.45653 17.8699 12.3268 23.9675 16.1556 18.2244C17.0418 16.895 18.5751 13.8904 17.0862 8.7854C16.5821 7.05714 16.9532 4.71618 22.271 6.6583C27.3671 8.5195 38.3039 11.657 41.2819 9.31715C42.1278 8.65246 42.9835 7.82818 42.8772 3.99941C42.7996 1.20759 47.5302 -1.79692 54.975 5.86062" stroke="#696B9B" stroke-width="0.797661" stroke-linecap="round" stroke-linejoin="round"/>
<path d="M56.8868 8.54532L62.5917 9.49187C62.7394 9.5164 62.7447 9.75844 62.6015 9.80257C60.1485 10.5586 59.2219 12.6527 58.9881 14.1336C58.9647 14.2816 58.7123 14.3157 58.6625 14.1744L56.7397 8.72068C56.7061 8.62529 56.7871 8.52877 56.8868 8.54532Z" fill="#696B9B"/>
<rect x="43" y="15" width="54" height="12" fill="#696B9B"/>
<path d="M49.6704 23.308L49.6664 24H46.1064V18.256H49.6664V18.948H46.9624V20.768H49.1384V21.436H46.9624V23.308H49.6704ZM55.4276 18.256V24H54.9956C54.929 24 54.873 23.988 54.8276 23.964C54.785 23.94 54.741 23.9013 54.6956 23.848L51.4516 19.652C51.457 19.724 51.461 19.7947 51.4636 19.864C51.469 19.9333 51.4716 19.9987 51.4716 20.06V24H50.7236V18.256H51.1636C51.2383 18.256 51.2943 18.2653 51.3316 18.284C51.369 18.3 51.4103 18.3387 51.4556 18.4L54.7076 22.6C54.6996 22.5227 54.693 22.448 54.6876 22.376C54.685 22.3013 54.6836 22.232 54.6836 22.168V18.256H55.4276ZM59.8206 19.192C59.794 19.2373 59.766 19.2707 59.7366 19.292C59.7073 19.3133 59.67 19.324 59.6246 19.324C59.5766 19.324 59.522 19.3027 59.4606 19.26C59.3993 19.2147 59.322 19.1653 59.2286 19.112C59.138 19.056 59.0286 19.0067 58.9006 18.964C58.7726 18.9187 58.6193 18.896 58.4406 18.896C58.2726 18.896 58.1246 18.9187 57.9966 18.964C57.8713 19.0067 57.766 19.0667 57.6806 19.144C57.5953 19.2187 57.53 19.308 57.4846 19.412C57.442 19.5133 57.4206 19.624 57.4206 19.744C57.4206 19.8987 57.4593 20.0267 57.5366 20.128C57.6166 20.2293 57.7206 20.316 57.8486 20.388C57.9766 20.46 58.122 20.5227 58.2846 20.576C58.4473 20.6293 58.614 20.6853 58.7846 20.744C58.9553 20.8 59.122 20.8653 59.2846 20.94C59.4473 21.0147 59.5926 21.1093 59.7206 21.224C59.8486 21.336 59.9513 21.4747 60.0286 21.64C60.1086 21.8027 60.1486 22.0027 60.1486 22.24C60.1486 22.4933 60.1046 22.7307 60.0166 22.952C59.9313 23.1733 59.806 23.3667 59.6406 23.532C59.4753 23.6973 59.2713 23.828 59.0286 23.924C58.7886 24.0173 58.5153 24.064 58.2086 24.064C58.0246 24.064 57.846 24.0453 57.6726 24.008C57.4993 23.9733 57.3353 23.924 57.1806 23.86C57.026 23.7933 56.8806 23.7147 56.7446 23.624C56.6113 23.5307 56.4913 23.4267 56.3846 23.312L56.6286 22.904C56.6526 22.872 56.6806 22.8453 56.7126 22.824C56.7473 22.8027 56.786 22.792 56.8286 22.792C56.8846 22.792 56.9486 22.8213 57.0206 22.88C57.0953 22.9387 57.186 23.004 57.2926 23.076C57.402 23.1453 57.5313 23.2093 57.6806 23.268C57.8326 23.3267 58.0166 23.356 58.2326 23.356C58.4086 23.356 58.566 23.3333 58.7046 23.288C58.8433 23.24 58.9593 23.1733 59.0526 23.088C59.1486 23 59.222 22.8947 59.2726 22.772C59.3233 22.6493 59.3486 22.5133 59.3486 22.364C59.3486 22.196 59.31 22.0587 59.2326 21.952C59.1553 21.8453 59.0526 21.756 58.9246 21.684C58.7966 21.612 58.6513 21.5507 58.4886 21.5C58.326 21.4493 58.1593 21.3973 57.9886 21.344C57.818 21.288 57.6513 21.224 57.4886 21.152C57.326 21.08 57.1806 20.9867 57.0526 20.872C56.9246 20.7547 56.822 20.6093 56.7446 20.436C56.6673 20.26 56.6286 20.044 56.6286 19.788C56.6286 19.5827 56.6686 19.384 56.7486 19.192C56.8286 19 56.9446 18.8307 57.0966 18.684C57.2513 18.5347 57.4406 18.416 57.6646 18.328C57.8886 18.2373 58.1446 18.192 58.4326 18.192C58.7553 18.192 59.0513 18.244 59.3206 18.348C59.5926 18.4493 59.8286 18.596 60.0286 18.788L59.8206 19.192ZM68.2356 21.128C68.2356 21.5573 68.1663 21.948 68.0276 22.3C67.8916 22.652 67.6983 22.9547 67.4476 23.208C67.197 23.4587 66.897 23.6533 66.5476 23.792C66.1983 23.9307 65.8103 24 65.3836 24H63.2236V18.256H65.3836C65.8103 18.256 66.1983 18.3253 66.5476 18.464C66.897 18.6027 67.197 18.7987 67.4476 19.052C67.6983 19.3027 67.8916 19.6053 68.0276 19.96C68.1663 20.312 68.2356 20.7013 68.2356 21.128ZM67.3636 21.128C67.3636 20.7867 67.317 20.4813 67.2236 20.212C67.1303 19.94 66.997 19.7107 66.8236 19.524C66.653 19.3347 66.445 19.1907 66.1996 19.092C65.957 18.9933 65.685 18.944 65.3836 18.944H64.0796V23.312H65.3836C65.685 23.312 65.957 23.2627 66.1996 23.164C66.445 23.0653 66.653 22.9227 66.8236 22.736C66.997 22.5467 67.1303 22.3173 67.2236 22.048C67.317 21.7787 67.3636 21.472 67.3636 21.128ZM70.8269 19.872C71.1255 19.872 71.3949 19.9213 71.6349 20.02C71.8775 20.116 72.0829 20.256 72.2509 20.44C72.4215 20.6213 72.5522 20.8413 72.6429 21.1C72.7335 21.356 72.7789 21.644 72.7789 21.964C72.7789 22.284 72.7335 22.5733 72.6429 22.832C72.5522 23.0907 72.4215 23.3107 72.2509 23.492C72.0829 23.6733 71.8775 23.8133 71.6349 23.912C71.3949 24.008 71.1255 24.056 70.8269 24.056C70.5255 24.056 70.2535 24.008 70.0109 23.912C69.7709 23.8133 69.5655 23.6733 69.3949 23.492C69.2242 23.3107 69.0922 23.0907 68.9989 22.832C68.9082 22.5733 68.8629 22.284 68.8629 21.964C68.8629 21.644 68.9082 21.356 68.9989 21.1C69.0922 20.8413 69.2242 20.6213 69.3949 20.44C69.5655 20.256 69.7709 20.116 70.0109 20.02C70.2535 19.9213 70.5255 19.872 70.8269 19.872ZM70.8269 23.448C71.2109 23.448 71.4975 23.3187 71.6869 23.06C71.8762 22.8013 71.9709 22.4373 71.9709 21.968C71.9709 21.4987 71.8762 21.1347 71.6869 20.876C71.4975 20.6147 71.2109 20.484 70.8269 20.484C70.4375 20.484 70.1469 20.6147 69.9549 20.876C69.7655 21.1347 69.6709 21.4987 69.6709 21.968C69.6709 22.4373 69.7655 22.8013 69.9549 23.06C70.1469 23.3187 70.4375 23.448 70.8269 23.448ZM73.6496 24V19.936H74.1176C74.2269 19.936 74.2949 19.988 74.3216 20.092L74.3776 20.48C74.5269 20.3013 74.6922 20.156 74.8736 20.044C75.0576 19.9293 75.2722 19.872 75.5176 19.872C75.7869 19.872 76.0056 19.9467 76.1736 20.096C76.3416 20.2427 76.4642 20.4427 76.5416 20.696C76.6002 20.552 76.6762 20.428 76.7696 20.324C76.8629 20.22 76.9669 20.1347 77.0816 20.068C77.1962 20.0013 77.3176 19.952 77.4456 19.92C77.5762 19.888 77.7082 19.872 77.8416 19.872C78.0576 19.872 78.2496 19.9067 78.4176 19.976C78.5882 20.0427 78.7322 20.1413 78.8496 20.272C78.9669 20.4027 79.0562 20.564 79.1176 20.756C79.1789 20.948 79.2096 21.1667 79.2096 21.412V24H78.4256V21.412C78.4256 21.108 78.3589 20.8787 78.2256 20.724C78.0949 20.5693 77.9029 20.492 77.6496 20.492C77.5376 20.492 77.4309 20.512 77.3296 20.552C77.2282 20.5893 77.1389 20.6467 77.0616 20.724C76.9869 20.8013 76.9269 20.8973 76.8816 21.012C76.8389 21.1267 76.8176 21.26 76.8176 21.412V24H76.0336V21.412C76.0336 21.0973 75.9709 20.8653 75.8456 20.716C75.7202 20.5667 75.5362 20.492 75.2936 20.492C75.1256 20.492 74.9696 20.536 74.8256 20.624C74.6816 20.712 74.5496 20.832 74.4296 20.984V24H73.6496ZM82.4429 22.196C82.1256 22.2067 81.8563 22.232 81.6349 22.272C81.4136 22.3093 81.2336 22.36 81.0949 22.424C80.9563 22.488 80.8563 22.564 80.7949 22.652C80.7336 22.7373 80.7029 22.8333 80.7029 22.94C80.7029 23.0413 80.7189 23.1293 80.7509 23.204C80.7856 23.276 80.8309 23.336 80.8869 23.384C80.9456 23.4293 81.0136 23.4627 81.0909 23.484C81.1683 23.5053 81.2523 23.516 81.3429 23.516C81.4629 23.516 81.5723 23.504 81.6709 23.48C81.7723 23.456 81.8669 23.4227 81.9549 23.38C82.0429 23.3347 82.1269 23.28 82.2069 23.216C82.2869 23.152 82.3656 23.0787 82.4429 22.996V22.196ZM80.1549 20.504C80.3816 20.288 80.6269 20.1267 80.8909 20.02C81.1576 19.9133 81.4496 19.86 81.7669 19.86C81.9989 19.86 82.2043 19.8987 82.3829 19.976C82.5616 20.0507 82.7123 20.156 82.8349 20.292C82.9576 20.428 83.0496 20.5907 83.1109 20.78C83.1749 20.9693 83.2069 21.1787 83.2069 21.408V24H82.8589C82.7816 24 82.7229 23.988 82.6829 23.964C82.6429 23.9373 82.6109 23.8893 82.5869 23.82L82.5029 23.464C82.3989 23.56 82.2963 23.6453 82.1949 23.72C82.0936 23.792 81.9869 23.8547 81.8749 23.908C81.7656 23.9587 81.6483 23.9973 81.5229 24.024C81.3976 24.0507 81.2589 24.064 81.1069 24.064C80.9469 24.064 80.7963 24.0427 80.6549 24C80.5163 23.9547 80.3949 23.8867 80.2909 23.796C80.1869 23.7053 80.1043 23.592 80.0429 23.456C79.9843 23.32 79.9549 23.1613 79.9549 22.98C79.9549 22.82 79.9976 22.6667 80.0829 22.52C80.1709 22.3707 80.3123 22.2373 80.5069 22.12C80.7043 22.0027 80.9603 21.9067 81.2749 21.832C81.5923 21.7573 81.9816 21.7147 82.4429 21.704V21.408C82.4429 21.1013 82.3776 20.872 82.2469 20.72C82.1163 20.568 81.9243 20.492 81.6709 20.492C81.5003 20.492 81.3563 20.5133 81.2389 20.556C81.1243 20.5987 81.0243 20.6467 80.9389 20.7C80.8563 20.7507 80.7829 20.7973 80.7189 20.84C80.6576 20.8827 80.5936 20.904 80.5269 20.904C80.4736 20.904 80.4269 20.8893 80.3869 20.86C80.3496 20.8307 80.3189 20.796 80.2949 20.756L80.1549 20.504ZM85.0671 19.936V24H84.2871V19.936H85.0671ZM85.2151 18.68C85.2151 18.752 85.2005 18.8213 85.1711 18.888C85.1418 18.952 85.1018 19.0093 85.0511 19.06C85.0031 19.108 84.9458 19.1467 84.8791 19.176C84.8125 19.2027 84.7431 19.216 84.6711 19.216C84.5991 19.216 84.5311 19.2027 84.4671 19.176C84.4031 19.1467 84.3458 19.108 84.2951 19.06C84.2471 19.0093 84.2085 18.952 84.1791 18.888C84.1525 18.8213 84.1391 18.752 84.1391 18.68C84.1391 18.6053 84.1525 18.536 84.1791 18.472C84.2085 18.4053 84.2471 18.348 84.2951 18.3C84.3458 18.2493 84.4031 18.2107 84.4671 18.184C84.5311 18.1547 84.5991 18.14 84.6711 18.14C84.7431 18.14 84.8125 18.1547 84.8791 18.184C84.9458 18.2107 85.0031 18.2493 85.0511 18.3C85.1018 18.348 85.1418 18.4053 85.1711 18.472C85.2005 18.536 85.2151 18.6053 85.2151 18.68ZM86.9284 20.5C87.0164 20.4067 87.1084 20.3213 87.2044 20.244C87.3004 20.1667 87.4018 20.1013 87.5084 20.048C87.6178 19.992 87.7338 19.9493 87.8564 19.92C87.9818 19.888 88.1151 19.872 88.2564 19.872C88.4804 19.872 88.6764 19.9093 88.8444 19.984C89.0151 20.0587 89.1578 20.164 89.2724 20.3C89.3871 20.4333 89.4738 20.5947 89.5324 20.784C89.5911 20.9733 89.6204 21.1827 89.6204 21.412V24H88.8364V21.412C88.8364 21.1213 88.7698 20.896 88.6364 20.736C88.5031 20.5733 88.2991 20.492 88.0244 20.492C87.8244 20.492 87.6364 20.54 87.4604 20.636C87.2871 20.7293 87.1258 20.8573 86.9764 21.02V24H86.1964V19.936H86.6644C86.7738 19.936 86.8418 19.988 86.8684 20.092L86.9284 20.5ZM93.069 20.636C93.0477 20.6707 93.025 20.696 93.001 20.712C92.977 20.7253 92.9463 20.732 92.909 20.732C92.8663 20.732 92.8183 20.7173 92.765 20.688C92.7143 20.6587 92.6517 20.6267 92.577 20.592C92.505 20.5573 92.4197 20.5253 92.321 20.496C92.2223 20.4667 92.105 20.452 91.969 20.452C91.857 20.452 91.7543 20.4667 91.661 20.496C91.5703 20.5227 91.493 20.5613 91.429 20.612C91.365 20.66 91.3157 20.7187 91.281 20.788C91.2463 20.8547 91.229 20.9267 91.229 21.004C91.229 21.1053 91.2583 21.1893 91.317 21.256C91.3783 21.3227 91.457 21.38 91.553 21.428C91.6517 21.476 91.7623 21.52 91.885 21.56C92.0103 21.5973 92.137 21.6373 92.265 21.68C92.3957 21.7227 92.5223 21.772 92.645 21.828C92.7703 21.8813 92.881 21.9493 92.977 22.032C93.0757 22.112 93.1543 22.2093 93.213 22.324C93.2743 22.4387 93.305 22.5787 93.305 22.744C93.305 22.9333 93.2703 23.1093 93.201 23.272C93.1343 23.432 93.0343 23.5707 92.901 23.688C92.7703 23.8053 92.6077 23.8973 92.413 23.964C92.2183 24.0307 91.9957 24.064 91.745 24.064C91.465 24.064 91.2063 24.0173 90.969 23.924C90.7317 23.8307 90.533 23.712 90.373 23.568L90.557 23.268C90.5783 23.2307 90.605 23.2027 90.637 23.184C90.669 23.1627 90.7117 23.152 90.765 23.152C90.8157 23.152 90.8677 23.1707 90.921 23.208C90.9743 23.2453 91.0383 23.2867 91.113 23.332C91.1877 23.3747 91.2783 23.4147 91.385 23.452C91.4917 23.4867 91.625 23.504 91.785 23.504C91.9183 23.504 92.0343 23.488 92.133 23.456C92.2317 23.4213 92.313 23.376 92.377 23.32C92.4437 23.2613 92.493 23.1947 92.525 23.12C92.557 23.0453 92.573 22.9667 92.573 22.884C92.573 22.7773 92.5423 22.6893 92.481 22.62C92.4223 22.548 92.3437 22.4867 92.245 22.436C92.149 22.3853 92.0383 22.3413 91.913 22.304C91.7877 22.2667 91.6597 22.2267 91.529 22.184C91.3983 22.1413 91.2703 22.092 91.145 22.036C91.0197 21.98 90.9077 21.9093 90.809 21.824C90.713 21.7387 90.6343 21.6347 90.573 21.512C90.5143 21.3893 90.485 21.24 90.485 21.064C90.485 20.9067 90.517 20.756 90.581 20.612C90.6477 20.468 90.7423 20.3413 90.865 20.232C90.9903 20.1227 91.1437 20.036 91.325 19.972C91.509 19.9053 91.7183 19.872 91.953 19.872C92.2223 19.872 92.465 19.9147 92.681 20C92.8997 20.0853 93.0863 20.2027 93.241 20.352L93.069 20.636Z" fill="white"/>
</svg>
