<svg width="185" height="168" viewBox="0 0 185 168" fill="none" xmlns="http://www.w3.org/2000/svg">
<path d="M154.216 53.9846C137.808 55.9459 121.394 57.8886 104.985 59.8498C94.0815 61.1399 83.1528 62.4477 72.4786 64.9988C53.384 69.5609 34.7121 78.1694 15.118 77.0223C13.9149 97.3037 25.5669 117.339 42.886 127.981C60.193 138.616 85.6646 148.039 105.002 141.829C127.281 134.668 139.809 121.399 151.104 100.906C156.396 91.3105 164.456 72.3759 160.297 62.2291C158.08 56.8166 156.558 52.26 154.377 54.3828" fill="#D4D5EB"/>
<path d="M134.024 41.8512C135.099 43.3873 135.565 45.0824 135.508 46.9525C135.462 48.551 133.482 49.0559 132.352 48.282C130.482 47.0064 129.576 44.8797 129.655 42.6604C129.693 41.3122 131.242 40.686 132.353 41.0679C134.198 41.7029 136.621 43.5817 136.278 45.7953C135.891 48.2919 132.786 48.6729 130.941 47.6362C129.105 46.6054 128.201 43.9799 130.158 42.5434C131.927 41.2435 134.839 42.4464 134.505 44.825C134.149 47.3451 130.221 46.8689 130.577 44.3488C130.447 45.225 131.673 46.4982 132.489 45.7294C132.65 45.4375 132.817 45.1378 132.978 44.8459C133.005 44.6346 132.971 44.4384 132.863 44.2592C132.736 44.1381 132.727 44.1186 132.842 44.2067C132.964 44.287 132.951 44.2889 132.813 44.1968C132.921 44.279 133.034 44.2914 133.04 44.2836C132.991 44.2833 132.951 44.2889 132.908 44.3293C132.455 44.6678 132.32 45.1986 132.493 45.9157C132.41 45.8647 132.213 45.5316 132.19 45.514C131.81 45.1157 131.382 44.9246 130.873 44.7447C131.777 44.2132 132.667 43.6835 133.571 43.1521C133.563 43.4508 133.667 43.9075 133.903 44.3185C134.06 44.6086 134.322 44.8568 134.743 45.1526C133.689 45.5938 132.642 46.0409 131.587 46.4821C131.61 45.7314 131.321 44.8776 130.882 44.2519C130.271 43.3727 130.382 42.153 131.254 41.4874C132.081 40.8487 133.413 40.972 134.024 41.8512Z" fill="#19233C"/>
<path d="M117.8 51.6955C115.416 49.7976 118.298 46.1999 120.731 47.9526C122.359 49.1295 122.921 52.1408 121.584 53.7075C119.906 55.6736 117.138 54.5686 116.35 52.3844C115.624 50.3577 116.326 48.0398 117.507 46.3421C118.307 45.1948 119.811 45.4609 120.651 46.3435C122.412 48.1946 122.83 51.3155 121.585 53.562C121.068 54.4977 120.111 55.0986 119.02 54.6587C116.905 53.8181 116.035 51.5965 116.641 49.4855C116.936 48.4552 118.29 48.0218 119.205 48.3888C120.281 48.8169 120.598 49.9231 120.302 50.9534C120.318 50.9166 120.328 50.8876 120.336 50.845C120.323 50.7013 120.323 50.7013 120.341 50.8372C120.341 50.8372 120.314 50.8895 120.414 51.0143C120.27 50.8193 120.505 51.0227 120.497 51.0653C120.525 50.9646 120.002 50.7865 120.478 50.9779C119.628 51.3428 118.764 51.7096 117.914 52.0746C118.603 50.8315 118.492 49.7597 117.507 48.7307C118.553 48.7337 119.605 48.729 120.65 48.7321C120.425 49.0604 120.215 49.4491 120.107 49.8791C120.049 50.1155 119.999 50.4061 119.997 50.6487C119.996 50.6351 120.096 51.2722 120.034 50.9691C120.147 51.4937 120.112 50.9308 119.951 50.9666C119.51 50.6804 119.024 50.7742 118.493 51.248C118.441 51.3175 118.396 51.3928 118.366 51.48C118.472 51.5971 118.312 51.1828 118.3 51.1012C118.311 51.2313 118.29 51.1787 118.226 50.9591C118.328 51.0975 118.453 51.205 118.596 51.2894C118.928 51.3343 119.265 51.3714 119.596 51.4163C120.005 51.0077 120.413 50.5991 120.813 50.1846C120.769 49.8583 120.723 49.5184 120.678 49.1921C120.69 49.2252 120.701 49.2582 120.72 49.2972C120.511 49.028 120.299 48.7453 120.089 48.4761C120.12 48.4996 120.151 48.5231 120.182 48.5466C122.178 50.1373 119.796 53.2862 117.8 51.6955Z" fill="#19233C"/>
<path d="M99.1558 53.9352C99.461 52.1074 101.297 51.4075 102.911 52.1226C104.201 52.7016 105.111 54.2463 105.257 55.6249C105.419 57.1259 104.645 58.609 103.204 59.1582C101.887 59.6559 100.416 59.0738 99.5419 58.0435C98.5928 56.9195 98.5181 55.3027 99.3662 54.1073C100.289 52.7979 102.059 52.3769 103.537 52.8543C106.679 53.8667 106.541 58.3441 103.919 59.8363C102.133 60.8547 100.201 59.8854 99.3979 58.1046C98.7439 56.6567 98.6236 54.9076 98.9888 53.3694C99.2286 52.3329 100.051 51.5079 101.191 51.6436C102.162 51.7606 103.162 52.8014 102.917 53.8456C102.813 54.3029 102.724 54.7718 102.747 55.2396C102.754 55.5016 102.793 55.7871 102.863 56.0476C102.888 56.1273 103.082 56.4817 103.062 56.5883C103.094 56.3692 101.931 56.4236 101.947 56.4353C101.847 56.5666 101.884 56.5339 102.029 56.3273C102.012 56.3504 101.994 56.3736 101.976 56.3967C102.156 55.9846 101.867 56.5571 102.179 56.5145C102.206 56.5108 102.252 56.5946 102.301 56.5949C102.594 56.6104 102.737 56.134 102.744 55.9323C102.745 55.7383 102.672 55.6582 102.603 55.5084C102.545 55.4401 102.478 55.4008 102.385 55.3789C102.625 55.4639 102.599 55.4812 102.301 55.4248C102.163 55.3813 102.026 55.3862 101.895 55.4455C101.656 55.5195 101.51 55.6641 101.45 55.8869C101.146 56.1429 101.595 56.2409 101.343 55.9637C101.408 56.0379 101.197 55.7066 101.197 55.7066C101.106 55.6012 101.097 55.5818 101.176 55.6541C101.419 55.8148 101.706 55.8381 102.022 55.7121C102.291 55.5024 102.573 55.2908 102.843 55.0811C102.813 55.1197 102.784 55.1583 102.741 55.1988C102.871 54.8834 102.999 54.5544 103.13 54.239C103.123 54.2952 103.109 54.3455 103.097 54.4095C102.65 56.9212 98.722 56.445 99.1558 53.9352Z" fill="#19233C"/>
<path d="M91.5295 61.3357C93.5234 62.9129 93.8836 65.6608 92.4263 67.7215C91.7995 68.6099 90.4969 68.7041 89.653 68.0989C86.32 65.6863 85.6479 61.1046 87.7294 57.6782C88.1473 56.9844 89.3192 56.6934 90.031 57.0396C93.3945 58.6588 94.7267 63.4622 91.9991 66.3119C91.198 67.141 89.6025 67.5243 88.8557 66.3105C87.6828 64.407 87.9583 62.3618 89.5848 60.8319C90.3657 60.1095 91.751 60.4194 92.3492 61.2034C93.0494 62.1258 92.7587 63.2454 91.9777 63.9679C92.1554 63.7983 92.0627 64.0325 91.9898 63.9039C90.944 63.9009 89.8923 63.9055 88.8465 63.9025C89.6769 63.0348 89.8204 61.2914 88.5612 60.6874C89.329 60.4791 90.1027 60.263 90.8628 60.0487C89.8722 61.6721 90.5735 63.8751 92.0334 64.9365C91.109 65.0623 90.1845 65.1881 89.2601 65.3139C89.4755 65.0146 89.3885 64.6803 89.1163 64.4612C87.1456 62.9016 89.5279 59.7527 91.5295 61.3357Z" fill="#19233C"/>
<path d="M116.149 63.0183C117.412 62.4795 118.933 62.0026 120.331 62.103C121.82 62.2119 122.988 63.3683 123.148 64.8421C123.292 66.1586 122.687 67.5147 121.598 68.2584C120.415 69.0772 119.008 69.1164 117.628 69.1033C116.346 69.091 115.58 67.4851 116.036 66.4054C116.726 64.7607 118.017 63.4634 119.697 62.84C120.699 62.4683 121.858 62.899 122.281 63.9147C122.682 64.8778 122.214 66.1184 121.206 66.4979C120.48 66.7628 120.004 67.1807 119.705 67.8791C119.173 66.9753 118.644 66.0851 118.112 65.1812C118.452 65.1835 118.988 65.1036 119.246 65.0685C119.768 64.9904 119.307 64.9078 119.296 65.0824C119.204 65.268 119.202 65.2544 119.302 65.0261C119.261 65.0802 119.249 65.1441 119.245 65.214C119.241 65.2838 119.244 65.3595 119.28 65.4237C119.427 65.7914 119.704 65.9893 120.103 66.0249C120.105 66.0385 119.328 66.1303 119.295 66.1418C118.728 66.2467 118.207 66.4353 117.677 66.6666C115.321 67.6657 113.806 64.0157 116.149 63.0183Z" fill="#19233C"/>
<path d="M131.672 59.2581C132.427 60.3807 133.182 61.5034 133.937 62.626C134.648 63.6785 134.353 65.1241 133.123 65.6515C130.95 66.5703 128.194 65.2423 127.773 62.8626C127.582 61.767 127.881 60.6048 128.609 59.7442C129.473 58.7196 130.607 58.3022 131.917 58.3109C132.984 58.318 133.76 59.5416 133.643 60.513C133.503 61.6743 132.513 62.2382 131.44 62.2389C131.648 62.2383 131.625 62.2207 131.816 62.1462C131.654 62.2791 131.615 62.2982 131.712 62.2019C131.802 62.0996 131.779 62.1305 131.642 62.2945C131.762 61.9597 131.575 62.4629 131.652 62.2655C131.677 62.1997 131.676 62.1376 131.645 62.0656C131.675 62.2831 131.679 62.3103 131.66 62.1744C131.566 61.7857 131.614 62.1391 131.678 62.1027C131.534 61.9562 131.516 61.9308 131.634 62.0325C131.756 62.1129 131.727 62.103 131.56 62.001C131.618 62.0208 131.671 62.0483 131.729 62.0681C131.521 62.0202 131.527 62.0124 131.754 62.0508C131.624 62.0131 131.253 62.1813 131.626 62.0266C131.356 63.0397 131.083 64.039 130.813 65.0521C130.057 63.9294 129.302 62.8068 128.547 61.6841C127.955 60.7954 128.033 59.5871 128.919 58.9197C129.717 58.2711 131.08 58.3694 131.672 59.2581Z" fill="#19233C"/>
<path d="M102.035 67.7154C103.028 67.4348 103.923 67.4932 104.804 68.0656C105.381 68.4439 105.852 69.0582 106.065 69.7077C106.705 71.6077 105.46 73.5009 103.479 73.7497C101.473 74.0158 99.7472 72.423 99.8284 70.425C99.8934 68.8169 101.252 67.3513 102.857 67.195C103.882 67.0971 104.982 67.799 105.081 68.8862C105.173 69.9191 104.491 71.0089 103.39 71.1103C103.035 71.1448 103.826 70.9056 103.423 71.0989C103.287 71.1659 103.357 71.1217 103.641 70.9722C103.479 71.1051 103.521 71.051 103.778 70.8082C103.741 70.841 103.706 70.8873 103.677 70.9259C103.583 71.0495 103.628 70.9741 103.797 70.6881C103.763 70.748 103.738 70.8138 103.712 70.8796C103.74 70.7789 103.762 70.6859 103.782 70.5793C103.77 70.6433 103.759 70.7208 103.755 70.7906C103.738 70.4607 103.742 70.3908 103.77 70.5948C103.743 70.5015 103.723 70.4004 103.696 70.3071C103.514 70.0342 103.485 69.9758 103.612 70.1455C103.375 69.9285 103.311 69.868 103.442 69.9678C103.572 70.054 103.498 70.0225 103.226 69.8519C103.415 69.923 103.365 69.9091 103.055 69.8197C103.216 69.8324 103.21 69.8401 103.03 69.837C102.55 69.9716 103.699 69.6144 102.841 69.8765C102.875 69.8651 102.913 69.8459 102.947 69.8345C102.748 69.903 102.592 70.0281 102.476 70.1962C102.576 70.0649 102.565 70.0803 102.463 70.2465C102.363 70.3778 102.313 70.523 102.302 70.6976C102.323 70.494 102.327 70.5697 102.318 70.9169C102.292 70.7751 102.302 70.7945 102.347 70.9753C102.406 71.1542 102.402 71.1756 102.349 71.0374C102.535 71.3375 102.571 71.4017 102.458 71.2302C102.235 70.9629 102.86 71.5356 102.568 71.326C102.276 71.1165 103.015 71.5075 102.696 71.3987C103.044 71.4689 103.124 71.4927 102.918 71.4584C103.13 71.485 103.334 71.4572 103.536 71.3674C103.023 71.5134 102.56 71.5763 102.042 71.3769C101.587 71.1895 101.12 70.7615 100.953 70.2928C100.629 69.3884 100.97 68.0266 102.035 67.7154Z" fill="#19233C"/>
<path d="M140.505 63.83C141.796 63.045 143.292 62.8415 144.702 63.4872C146.083 64.1231 147.086 65.3366 147.293 66.8592C147.436 67.906 146.664 68.9526 145.602 69.0833C143.94 69.2818 142.021 68.9684 141.363 67.1886C140.774 65.6072 141.708 63.5624 143.511 63.4347C144.573 63.3525 145.585 64.0247 145.735 65.1259C145.872 66.1319 145.114 67.2736 144.044 67.3499C144.802 67.1221 145.156 66.6724 145.114 66.0066C145.043 65.684 144.87 65.4306 144.589 65.2541C144.578 65.1725 144.961 65.1829 145.063 65.1758C144.5 65.9171 143.936 66.6585 143.372 67.3998C143.328 67.0736 143.459 67.4295 143.352 67.2988C143.31 67.1937 143.31 67.1937 143.357 67.2911C143.419 67.3865 143.405 67.3884 143.344 67.2929C143.251 67.1739 143.282 67.1974 143.427 67.3439C143.381 67.3087 143.34 67.2657 143.294 67.2305C143.247 67.1952 143.201 67.16 143.155 67.1248C143.34 67.2172 143.364 67.2348 143.23 67.1699C143.199 67.1464 142.863 67.0123 143.066 67.0815C143.29 67.1548 142.854 67.0549 142.798 67.0487C143.058 67.0757 142.859 66.985 142.787 67.0641C142.965 67.0052 142.985 66.9956 142.853 67.0413C142.722 67.1006 142.74 67.0774 142.907 66.9854C141.999 67.5382 140.833 67.5169 140.143 66.6139C139.537 65.8241 139.591 64.3905 140.505 63.83Z" fill="#19233C"/>
<path d="M126.756 83.3206C126.885 83.76 126.437 83.1147 126.806 83.4315C127.026 83.6231 127.24 83.8225 127.448 84.0295C127.97 84.5608 128.356 85.2075 128.438 85.9648C128.586 87.357 127.647 88.5926 126.367 89.0575C124.996 89.5626 123.547 89.1921 122.558 88.1358C121.659 87.1713 121.341 85.8575 121.23 84.5781C121.141 83.621 121.621 82.9256 122.433 82.4828C123.226 82.0495 124.141 81.8073 125.04 81.7472C126.133 81.6885 127.069 82.3156 127.264 83.4385C127.587 85.3538 126.266 87.0428 124.418 87.405C123.373 87.6096 122.339 86.7257 122.194 85.7138C122.042 84.5991 122.834 83.702 123.885 83.4898C123.697 83.5293 123.52 83.6018 123.433 83.7798C123.363 83.9209 123.422 84.356 123.354 83.9636C124.096 84.5273 124.837 85.091 125.579 85.6548C124.878 85.6948 124.578 85.7839 123.946 86.1193C124.342 85.4215 124.746 84.7295 125.149 84.024C125.199 84.5987 125.21 85.0819 125.457 85.4774C125.39 85.3411 125.421 85.3646 125.552 85.5615C125.512 85.47 125.435 85.4113 125.332 85.3698C125.228 85.3148 125.121 85.2947 125.006 85.3172C125.23 85.2799 125.23 85.2799 125.014 85.3231C124.569 85.716 124.511 86.0008 124.567 86.6163C124.586 86.7037 124.638 86.7798 124.713 86.8249C124.611 86.7349 124.509 86.645 124.406 86.5551C123.847 86.0566 123.313 85.5408 123.095 84.802C122.783 83.7851 123.115 82.66 124.169 82.2188C125.091 81.8718 126.443 82.2901 126.756 83.3206Z" fill="#19233C"/>
<path d="M109 77.7888C110.715 78.1301 112.269 79.3725 112.522 81.1865C112.784 83.0063 111.595 84.6981 109.846 85.1716C108.022 85.6621 106.132 84.5416 105.865 82.6325C105.62 80.935 106.756 79.0565 108.564 78.9075C109.591 78.8231 110.686 79.4978 110.788 80.5987C110.878 81.6179 110.199 82.7349 109.097 82.8227C108.926 82.839 108.926 82.8391 109.101 82.8014C109.237 82.7829 109.367 82.7236 109.472 82.6331C109.539 82.5617 109.613 82.4963 109.679 82.4249C109.587 82.5621 109.58 82.5562 109.683 82.4036C109.772 82.2393 109.78 82.2452 109.711 82.3999C109.734 82.3205 109.764 82.2334 109.78 82.1481C109.692 82.5201 109.728 81.7675 109.788 82.154C109.756 81.9229 109.663 81.7418 109.489 81.5854C109.387 81.4955 108.963 81.3316 109.273 81.421C109.201 81.4031 108.602 81.3739 108.938 81.3489C108.864 81.3659 108.784 81.3906 108.718 81.4135C108.881 81.3428 108.895 81.3409 108.747 81.4234C108.461 81.5107 108.877 81.4126 108.87 81.3097C108.815 81.3656 108.747 81.4234 108.692 81.4793C108.796 81.3267 108.804 81.3325 108.712 81.4697C108.635 81.6186 108.627 81.6127 108.694 81.4443C108.676 81.516 108.653 81.5954 108.627 81.6612C108.643 81.8806 108.643 81.9291 108.622 81.7795C108.596 81.6377 108.615 81.6767 108.666 81.8982C108.484 81.5768 108.768 82.0852 108.676 81.8692C108.578 81.6609 108.476 81.668 108.686 81.8401C108.524 81.7168 108.264 81.6414 108.626 81.7583C108.518 81.7246 108.08 81.611 108.528 81.6955C107.518 81.5006 106.62 80.5982 106.802 79.4934C106.96 78.5165 107.911 77.5701 109 77.7888Z" fill="#19233C"/>
<path d="M87.4226 77.3476C89.175 77.6075 91.0563 78.6115 91.3579 80.5228C91.6818 82.5972 89.8041 84.2651 87.7895 84.0616C85.7748 83.8581 84.601 81.7955 85.3526 79.9416C85.9916 78.38 87.9559 77.3996 89.5382 78.1396C90.4705 78.5804 91.0937 79.7003 90.6349 80.7043C90.2136 81.627 89.0625 82.2752 88.0703 81.801C87.9232 81.738 87.9368 81.7361 88.117 81.7877C88.2621 81.8372 88.4018 81.8459 88.5572 81.8178C88.1902 81.8678 88.9774 81.6499 88.6311 81.8009C88.7148 81.7548 88.7985 81.7088 88.8881 81.6551C88.7262 81.7879 88.7673 81.7339 89.0056 81.5007C88.945 81.5643 88.7685 81.8445 88.9413 81.5371C88.9923 81.454 89.0337 81.3515 89.0421 81.2603C89.0337 81.3515 89.0156 80.8624 88.9641 80.7378C88.8609 80.4888 88.6432 80.2622 88.3877 80.1655C88.1106 80.1132 88.0525 80.0934 88.194 80.1157C88.3414 80.1303 88.2793 80.1318 88.0077 80.1203C88.3726 80.1052 87.6613 80.2713 88.0194 80.1049C87.9416 80.1432 87.8714 80.1873 87.7935 80.2256C87.5961 80.4532 87.5473 80.5014 87.6412 80.3778C87.7352 80.2543 87.7018 80.3142 87.5216 80.5672C87.4931 80.7649 87.4724 80.9685 87.4439 81.1663C87.4143 80.9488 87.418 80.9759 87.4763 81.2519C87.5205 81.322 87.5569 81.3863 87.5952 81.4641C87.4167 81.1699 87.8794 81.6193 87.5643 81.4406C87.1371 81.2011 87.9767 81.5714 87.4967 81.4014C87.3437 81.346 87.2044 81.2889 87.0456 81.2412C87.3632 81.3365 87.1191 81.2728 86.935 81.2425C85.9173 81.0902 85.0371 80.1161 85.2091 79.0403C85.3982 78.0384 86.3351 77.1909 87.4226 77.3476Z" fill="#19233C"/>
<path d="M64.9732 84.5912C65.1864 83.4613 65.5689 82.2531 66.5939 81.5944C67.2935 81.1391 68.104 80.9388 68.9109 81.2721C69.4682 81.5009 69.9605 81.8631 70.3377 82.3449C71.696 84.0847 71.1221 86.939 68.9228 87.6676C66.9082 88.3294 64.4505 87.0577 64.3043 84.8137C64.1649 82.7211 66.1598 80.6427 68.3279 81.1091C69.3335 81.3254 70.2339 82.1928 70.0538 83.3112C69.896 84.2881 68.9349 85.2635 67.8517 85.0371C67.3519 84.9251 68.1045 84.9611 67.8072 85.0154C67.9005 84.9889 67.988 84.9701 68.0813 84.9435C67.8925 85.0315 67.9354 84.9911 68.2256 84.8339C68.1613 84.8703 68.0989 84.9204 68.0424 84.9627C68.1088 84.8913 68.1811 84.8122 68.2553 84.7468C68.2006 84.8027 68.1595 84.8568 68.1125 84.9185C68.2717 84.613 68.3051 84.5531 68.2068 84.7465C68.0862 85.0813 68.2427 84.2985 68.2247 84.6748C68.2093 84.3584 68.2078 84.2963 68.2356 84.5002C68.2168 84.4128 68.1902 84.3195 68.1714 84.232C68.2594 84.4208 68.2325 84.376 68.0831 84.0917C68.2236 84.2595 68.1754 84.2107 67.9481 83.9647C68.2162 84.2051 67.5261 83.8144 67.8882 83.9313C68.287 84.064 67.425 83.8351 67.8455 83.9233C68.055 83.9363 68.0006 83.9437 67.6864 83.9242C67.8418 83.8961 67.8359 83.9038 67.6688 83.9474C67.4957 83.9986 67.4957 83.9986 67.6397 83.9375C67.365 84.1064 67.3202 84.1332 67.484 84.014C67.3573 84.1005 67.2674 84.2027 67.2102 84.3421C67.1354 84.5046 67.1218 84.5064 67.1984 84.3575C67.1363 84.6637 67.1205 84.7005 67.1548 84.495C67.1646 84.7706 67.1739 84.8386 67.1536 84.689C67.1178 84.2231 67.2993 84.9461 67.1384 84.6288C67.2882 84.8646 67.3169 84.9229 67.2382 84.8021C67.2036 84.7514 67.169 84.7008 67.1208 84.6519C67.1038 84.8827 67.8922 85.0801 67.3287 84.9075C67.8273 84.9089 68.3183 84.9044 68.8228 84.898C68.6516 84.9628 68.6362 84.9511 68.7783 84.8764C68.8951 84.8189 68.981 84.738 69.0496 84.6318C68.8169 84.9057 69.1134 84.3877 69.0459 84.6046C69.0141 84.7266 68.955 84.8523 68.9155 84.9685C69.0262 84.6626 68.9374 84.8755 68.9089 85.0732C68.7218 86.0887 67.8039 86.9752 66.7069 86.7991C65.6932 86.6255 64.7681 85.6783 64.9732 84.5912Z" fill="#19233C"/>
<path d="M82.0047 69.1813C82.6407 69.5309 83.2203 69.9228 83.6372 70.5445C84.1885 71.3903 84.5348 72.4093 83.9989 73.3546C83.5238 74.1877 82.6228 74.5873 81.6805 74.4801C80.4629 74.3343 79.6457 73.2132 79.7603 72.0206C79.8486 70.9909 80.9293 70.1307 81.9624 70.2947C83.0459 70.4727 83.7809 71.3973 83.6883 72.4968C83.6843 72.5181 83.6861 72.5317 83.6821 72.553C83.6794 72.3803 83.6785 72.2212 83.6757 72.0485C83.6776 72.0621 83.6872 72.0816 83.6831 72.1029C83.6396 71.9357 83.5979 71.7822 83.5544 71.615C83.564 71.6345 83.5717 71.6404 83.5813 71.6598C83.4988 71.5118 83.4164 71.3638 83.3262 71.2099C83.3417 71.2216 83.3435 71.2352 83.359 71.247C83.2317 71.1258 83.1103 70.997 82.9831 70.8758C82.9985 70.8876 83.0139 70.8993 83.0217 70.9052C82.8709 70.8149 82.7143 70.7324 82.5635 70.6422C82.5944 70.6656 82.6235 70.6756 82.6661 70.6836C82.5014 70.6437 82.3368 70.6038 82.1644 70.558C82.207 70.566 82.2419 70.5682 82.2769 70.5704C82.1041 70.5731 81.945 70.574 81.7723 70.5768C81.8072 70.5789 81.848 70.5734 81.8811 70.562C81.7139 70.6055 81.5603 70.6472 81.3932 70.6907C81.4127 70.6811 81.4262 70.6793 81.4457 70.6697C81.2977 70.7521 81.1497 70.8346 80.9958 70.9248C81.0289 70.9133 81.0542 70.8961 81.0777 70.8652C80.9565 70.9924 80.8277 71.1138 80.7065 71.2411C80.7183 71.2256 80.7241 71.2179 80.7282 71.1966C80.6379 71.3473 80.5554 71.5039 80.4651 71.6547C80.4692 71.6334 80.475 71.6257 80.479 71.6043C80.4391 71.769 80.3993 71.9337 80.3535 72.106C80.3575 72.0847 80.3556 72.0711 80.3519 72.044C80.3964 72.3702 80.4426 72.7101 80.487 73.0363C80.4376 72.8769 80.3765 72.7329 80.294 72.5849C80.3765 72.7329 80.4589 72.881 80.5491 73.0348C80.4494 72.8615 80.332 72.7113 80.1875 72.5648C80.3147 72.6859 80.4361 72.8148 80.5634 72.936C80.4438 72.8207 80.3125 72.7209 80.1695 72.6365C80.3203 72.7267 80.4769 72.8093 80.6276 72.8995C80.5986 72.8896 80.5677 72.8661 80.5387 72.8562C80.0592 72.5892 79.6672 72.3033 79.4496 71.7721C79.272 71.3324 79.2373 70.721 79.4401 70.278C79.6527 69.806 80.0224 69.368 80.5242 69.1889C80.9657 69.025 81.5697 68.9358 82.0047 69.1813Z" fill="#19233C"/>
<path d="M151.14 78.6932C150.897 76.4 153.008 74.105 155.395 74.604C157.961 75.141 159.164 78.2865 157.59 80.4047C156.01 82.5305 152.519 81.9602 151.426 79.6788C150.361 77.4423 152.236 74.6878 154.668 74.8068C157.77 74.9593 158.499 79.6093 155.682 80.782C154.725 81.1754 153.465 80.7168 153.099 79.7074C152.733 78.6979 153.152 77.554 154.173 77.1242C153.963 77.2082 153.782 77.3991 153.677 77.6002C153.644 77.6601 153.533 78.0629 153.541 77.9233C153.572 77.6906 153.571 78.3969 153.522 77.9813C153.546 78.1581 153.613 78.2943 153.715 78.4328C153.553 78.2125 153.761 78.468 153.838 78.5267C154.016 78.6618 154.233 78.7292 154.454 78.7268C154.516 78.7253 154.905 78.6308 154.767 78.6842C154.523 78.7796 155.197 78.4873 155.122 78.3936C155.122 78.3936 154.955 78.5963 154.963 78.6021C155.008 78.5268 155.053 78.4514 155.098 78.376C155.037 78.5367 155.031 78.5444 155.079 78.3856C155.3 78.0786 154.897 78.5765 155.086 78.2808C155.077 78.1159 155.085 78.1217 155.101 78.2926C155.076 78.2129 155.059 78.139 155.035 78.0593C154.991 77.9406 154.848 77.7593 154.996 77.9814C154.94 77.9267 154.885 77.872 154.829 77.8173C154.981 77.9212 154.983 77.9348 154.846 77.8427C154.478 77.685 155.127 77.9222 154.772 77.8111C154.519 77.728 155.099 77.7667 154.607 77.8197C154.635 77.816 154.899 77.7732 154.901 77.7868C154.856 77.7166 154.546 77.9319 154.508 77.9511C154.884 77.7129 154.343 78.1672 154.504 77.9723C154.629 77.8238 154.415 78.1852 154.391 78.2161C154.357 78.373 154.355 78.3594 154.386 78.1753C154.389 78.251 154.391 78.3131 154.394 78.3888C154.29 78.2368 154.364 78.2683 154.436 78.4453C154.402 78.3461 154.223 78.1005 154.377 78.2664C154.597 78.5066 154.112 78.1502 154.422 78.3366C154.541 78.4519 154.528 78.4537 154.387 78.3344C154.454 78.3737 154.516 78.4207 154.591 78.4658C154.723 78.5171 154.902 78.5066 154.673 78.5032C154.748 78.4998 155.242 78.4119 155.055 78.465C154.935 78.4952 154.81 78.6438 154.962 78.4915C155.077 78.4205 155.09 78.4187 155.009 78.4783C154.89 78.5706 154.933 78.5301 155.122 78.3451C155.108 78.3469 154.95 78.5555 154.952 78.5691C154.931 78.5165 155.179 78.2058 155.03 78.4823C155.086 78.2323 155.1 78.182 155.085 78.3293C155.071 78.4767 155.077 78.4205 155.092 78.1761C155.198 79.2071 154.488 80.3006 153.401 80.4001C152.331 80.4765 151.261 79.7845 151.14 78.6932Z" fill="#19233C"/>
<path d="M111.617 90.7119C113.554 90.0883 115.512 90.3341 117.194 91.5036C117.851 91.9542 118.218 93.0743 117.833 93.8052C117.153 95.1162 116.288 96.4455 114.832 96.983C113.435 97.5054 111.823 97.2056 110.776 96.1295C109.651 94.9811 109.604 93.1666 110.581 91.8983C111.452 90.769 112.885 90.2624 114.216 89.9704C115.266 89.7445 116.304 90.6556 116.44 91.6616C116.594 92.79 115.799 93.6598 114.749 93.8856C114.642 93.914 114.481 93.9499 114.681 93.8949C114.522 93.9443 114.37 93.9996 114.218 94.0548C114.094 94.1064 113.975 94.1502 113.853 94.2154C113.574 94.3571 114.04 94.0653 113.802 94.25C113.544 94.4442 113.686 94.4665 113.724 94.2883C113.689 94.3346 113.659 94.3732 113.624 94.4195C113.665 94.3655 113.699 94.3056 113.74 94.2515C113.795 94.0501 113.828 93.7825 113.733 93.5879C113.694 93.51 113.341 93.2049 113.525 93.3323C113.762 93.5007 113.26 93.119 113.486 93.3029C113.589 93.3443 113.589 93.3444 113.48 93.3107C113.366 93.2847 113.372 93.2769 113.478 93.297C113.591 93.3094 113.591 93.3094 113.478 93.297C113.341 93.302 113.366 93.2847 113.564 93.2647C113.473 93.2563 113.395 93.2946 113.327 93.3523C113.44 93.2677 113.561 93.189 113.658 93.0926C113.498 93.239 113.68 93.0481 113.721 92.9941C113.946 92.6657 114.056 92.5054 114.15 92.3333C114.359 93.1011 114.575 93.8748 114.789 94.6349C114.621 94.5193 114.302 94.3619 113.997 94.3134C113.912 94.2973 113.324 94.3012 113.598 94.2777C113.509 94.283 112.858 94.4339 113.103 94.3521C112.088 94.6771 110.953 94.3262 110.519 93.2774C110.161 92.3709 110.596 91.0446 111.617 90.7119Z" fill="#19233C"/>
<path d="M146.879 50.383C147.903 49.7728 148.978 49.5782 150.126 49.9758C151.078 50.31 151.903 51.0838 152.254 52.0331C152.574 52.9103 152.309 53.7564 151.63 54.3612C150.54 55.3125 148.993 55.4885 147.663 55.0257C146.486 54.6181 146.024 52.9503 146.821 51.9971C147.567 51.1133 148.648 50.5093 149.824 50.9653C150.966 51.4191 151.654 52.7586 151.149 53.935C150.597 55.2217 149.002 55.605 147.882 54.802C146.708 53.958 146.767 52.3091 147.829 51.41C148.617 50.7419 150.007 50.9335 150.593 51.7815C151.229 52.6918 151.066 53.8355 150.222 54.5459C150.21 54.5614 150.19 54.5709 150.179 54.5864C150.43 54.1437 150.687 53.6933 150.938 53.2506C150.934 53.2719 150.928 53.2797 150.924 53.301C150.88 52.9747 150.834 52.6349 150.789 52.3086C150.341 51.968 149.894 51.6274 149.44 51.2945C149.114 51.339 148.774 51.3852 148.447 51.4296C148.467 51.42 148.488 51.4241 148.508 51.4145C148.238 51.6242 147.962 51.8281 147.687 52.0455C147.626 52.1576 147.563 52.2561 147.502 52.3683C147.457 52.6998 147.42 53.0371 147.375 53.3686C147.811 53.8217 148.254 54.2806 148.689 54.7337C149.016 54.6892 149.355 54.643 149.682 54.5986C149.464 54.6767 149.499 54.6304 149.793 54.4519C150.067 54.2208 150.111 54.194 149.949 54.3753C149.667 53.3683 149.39 52.3536 149.108 51.3467C149.514 51.4852 148.718 51.3305 149.141 51.3352C148.886 51.3491 148.83 51.3429 148.974 51.3303C149.042 51.321 149.11 51.3117 149.178 51.3025C149.104 51.3195 149.024 51.3442 148.95 51.3611C149.036 51.3287 149.122 51.2963 149.199 51.258C149.129 51.3022 149.057 51.3327 148.987 51.3769C149.063 51.325 149.131 51.2673 149.2 51.2095C148.987 51.9862 148.78 52.7551 148.575 53.5377C148.476 53.2673 148.625 53.6486 148.691 53.6742C148.698 53.6801 148.369 53.2957 148.66 53.6023C148.893 53.8405 148.7 53.6452 148.633 53.6059C148.416 53.49 149.105 53.8672 148.747 53.6805C148.493 53.5488 148.861 53.7549 148.917 53.7126C148.911 53.7203 148.7 53.6937 148.692 53.6878C148.789 53.6885 148.873 53.691 148.97 53.6916C148.814 53.7197 148.82 53.712 148.987 53.6684C149.133 53.6209 149.166 53.6095 149.075 53.6496C148.937 53.703 149.001 53.6666 149.266 53.5267C148.382 54.0486 147.149 54.0987 146.501 53.1552C145.95 52.358 145.932 50.955 146.879 50.383Z" fill="#19233C"/>
<path d="M158.42 62.6444C159.943 60.914 162.769 60.7717 164.205 62.7293C165.549 64.568 164.69 67.4127 162.57 68.2135C160.417 69.0258 157.75 67.3395 158.005 64.9371C158.243 62.717 161.122 61.2866 162.907 62.8022C163.696 63.4633 163.992 64.7246 163.284 65.5755C162.623 66.3648 161.362 66.661 160.511 65.953C160.318 65.8062 160.39 65.8241 160.724 65.9932C160.9 66.1147 161.092 66.1509 161.294 66.1095C161.558 66.0181 161.619 66.003 161.48 66.0564C161.342 66.1098 161.401 66.0811 161.64 65.9585C161.371 66.1197 161.73 65.8563 161.803 65.7287C161.909 65.5412 161.955 65.3203 161.912 65.1046C161.869 64.8405 161.738 64.6921 161.562 64.5221C161.927 64.8602 161.231 64.2211 161.607 64.5438C161.535 64.5258 161.464 64.5079 161.398 64.4822C161.58 64.499 161.594 64.4971 161.44 64.4903C161.334 64.4702 161.227 64.4986 161.13 64.5465C160.933 64.6771 160.896 64.7098 161.015 64.6175C161.206 64.4461 160.741 64.897 161.007 64.6116C160.891 64.8282 160.856 64.8745 160.913 64.7352C160.964 64.6036 160.956 64.6462 160.889 64.8631C160.905 64.4732 161.019 65.1569 160.895 64.7583C160.92 64.838 161.144 65.216 161.014 65.0676C160.881 64.9057 161.234 65.2107 161.301 65.25C160.849 64.9792 161.651 65.4308 161.179 65.2181C161.393 65.2098 161.422 65.2197 161.278 65.2324C161.136 65.2586 161.169 65.2472 161.377 65.1981C161.066 65.3028 161.448 65.154 161.555 65.0286C160.871 65.8002 159.648 66.1258 158.782 65.406C158.016 64.7625 157.681 63.4719 158.42 62.6444Z" fill="#19233C"/>
<path d="M130.233 96.2993C131.885 96.7391 133.494 98.0362 133.756 99.8075C134.005 101.435 133.061 103.142 131.514 103.733C129.711 104.422 127.849 103.201 127.628 101.327C127.425 99.5754 128.818 97.7102 130.706 98.0487C131.727 98.2282 132.608 99.1537 132.432 100.251C132.264 101.257 131.321 102.161 130.23 101.977C130.005 101.952 130.085 101.927 130.471 101.916C130.708 101.926 130.914 101.863 131.109 101.719C131.189 101.645 131.275 101.565 131.355 101.491C131.508 101.194 131.559 101.11 131.504 101.263C131.415 101.476 131.58 100.81 131.557 101.145C131.543 100.843 131.548 100.773 131.568 100.922C131.588 101.072 131.571 100.998 131.503 100.703C131.326 100.263 130.796 99.9334 130.322 100.012C130.058 100.103 129.99 100.112 130.128 100.059C130.258 99.9997 130.208 100.034 129.955 100.159C130.255 99.9725 129.759 100.4 129.9 100.215C130.041 100.029 129.72 100.675 129.867 100.275C129.993 99.9319 129.822 100.558 129.859 100.317C129.887 100.071 129.831 100.723 129.851 100.36C129.907 100.574 129.913 100.614 129.859 100.476C129.8 100.346 129.81 100.365 129.896 100.541C129.624 100.273 130.057 100.602 129.852 100.47C129.73 100.39 129.612 100.288 129.491 100.208C129.852 100.422 129.347 100.172 129.295 100.145C129.127 100.078 128.954 100.032 128.774 99.9801C127.769 99.7154 127.272 98.3015 127.678 97.4155C128.152 96.3262 129.156 96.0166 130.233 96.2993Z" fill="#19233C"/>
<path d="M134.105 77.5502C136.263 75.7542 139.91 77.1618 140.308 79.9391C140.715 82.7223 137.413 85.2209 134.861 83.8652C134.078 83.4525 133.522 82.7251 133.637 81.7887C133.883 79.8306 135.185 78.1026 137.044 77.4203C138.046 77.0485 139.205 77.4792 139.627 78.4949C140.021 79.4521 139.56 80.6987 138.553 81.0781C137.893 81.3202 137.629 81.6192 137.559 82.2726C137.146 81.5811 136.742 80.8954 136.335 80.1961C136.35 80.2078 136.617 80.3377 136.623 80.3299C136.655 80.2564 136.069 80.2738 136.311 80.2755C136.589 80.2792 136.01 80.3511 136.28 80.3005C136.334 80.2931 136.624 80.1359 136.412 80.2548C136.174 80.391 136.535 80.1411 136.578 80.1007C136.461 80.2066 136.338 80.2718 136.518 80.1158C136.407 80.214 136.398 80.4021 136.461 80.1581C136.443 80.2298 136.413 80.67 136.399 80.4643C136.381 80.2798 136.462 80.6219 136.477 80.6821C136.538 80.8261 136.365 80.6697 136.525 80.7309C136.744 80.812 136.452 80.6994 136.365 80.6212C136.473 80.7034 136.633 80.8131 136.421 80.6759C136.224 80.5504 136.314 80.7043 136.471 80.6898C136.192 80.721 136.46 80.7053 136.524 80.6688C136.126 80.9029 136.744 80.5073 136.508 80.6571C136.273 80.8069 136.885 80.3705 136.512 80.6843C135.691 81.3638 134.371 81.128 133.748 80.3128C133.061 79.437 133.278 78.2374 134.105 77.5502Z" fill="#19233C"/>
<path d="M167.632 48.6867C170.086 50.2358 171 53.49 169.977 56.1492C169.533 57.3105 167.931 57.7985 166.948 56.9907C164.974 55.3555 164.254 52.7603 165.137 50.3485C165.369 49.7078 166.026 49.1961 166.702 49.1249C168.047 48.9902 169.404 49.4978 170.165 50.6613C170.743 51.5518 170.698 52.7487 169.793 53.4257C168.801 54.1701 167.632 54.4883 166.393 54.3384C163.871 54.0171 164.347 50.0891 166.87 50.4104C167.159 50.4473 167.16 50.4609 167.392 50.2839C167.268 51.2009 167.145 52.1314 167.021 53.0484C166.748 52.6216 166.974 53.0617 167.233 53.0265C167.751 52.6167 168.278 52.2127 168.797 51.8028C168.524 52.5461 168.767 53.3646 169.336 53.834C168.329 54.1165 167.315 54.3931 166.308 54.6755C166.742 53.5433 166.204 52.4395 165.242 51.8297C164.334 51.261 164.254 49.8595 164.865 49.0564C165.558 48.1451 166.73 48.1102 167.632 48.6867Z" fill="#19233C"/>
<path d="M149.143 90.7275C151.502 91.4242 152.453 94.8533 150.759 96.6485C150.147 97.2926 149.321 97.6266 148.458 97.2872C145.766 96.2273 144.937 92.9407 146.432 90.5912C147.053 89.6135 148.341 89.7152 149.205 90.2138C151.124 91.3441 151.854 94.0072 150.969 96.0038C150.445 97.1897 148.995 97.6225 147.94 96.8452C145.894 95.3376 145.561 92.5374 146.906 90.4643C147.467 89.5988 148.9 89.4453 149.679 90.0869C150.553 90.8126 150.657 91.927 150.057 92.8602C150.159 92.694 150.143 92.6823 150.064 92.8661C149.997 93.0344 150.028 93.0579 150.045 92.8757C150.027 92.9958 150.014 93.1083 150.01 93.2266C150.013 92.9492 150.033 93.1957 150.046 93.3394C150.09 93.6172 149.944 93.104 150.055 93.3589C150.074 93.3978 150.241 93.7074 150.12 93.53C150.005 93.3449 150.224 93.6336 150.243 93.6725C150.397 93.887 149.925 93.4182 150.325 93.7099C149.318 93.9924 148.303 94.2689 147.296 94.5514C147.343 94.4411 147.385 94.3385 147.424 94.2223C147.313 94.5767 147.395 94.2124 147.404 94.1213C147.421 93.842 147.445 94.3719 147.394 94.1018C147.373 94.0008 147.253 93.6779 147.379 93.9931C147.337 93.888 147.287 93.7771 147.245 93.6721C147.332 93.8473 147.334 93.8123 147.224 93.668C147.005 93.3794 147.354 93.7058 147.174 93.6056C147.054 93.5388 146.937 93.4371 146.809 93.3645C147.733 93.2387 148.658 93.1129 149.582 92.9871C149.81 92.6238 149.622 92.9194 149.596 93.0337C149.552 93.1712 149.554 93.1363 149.623 92.933C149.617 92.9892 149.611 93.0455 149.603 93.0881C149.683 93.0149 149.57 92.7949 149.618 93.1484C149.633 93.3056 149.769 93.4947 149.627 93.2163C149.681 93.3059 149.717 93.4187 149.751 93.5179C149.597 93.1444 149.705 93.4827 149.811 93.5513C150.008 93.6768 149.551 93.3167 149.842 93.5748C150.141 93.8387 149.542 93.4564 149.953 93.6221C149.185 93.8304 148.411 94.0465 147.651 94.2607C147.966 93.9271 147.767 94.0927 147.693 94.4143C147.712 94.1971 147.727 94.2088 147.725 94.4513C147.718 94.3485 147.704 94.2397 147.683 94.1387C147.749 94.372 147.737 94.3874 147.661 94.1832C147.788 94.4013 147.79 94.4149 147.655 94.2394C147.888 94.4776 148.165 94.53 147.718 94.397C146.723 94.1032 146.204 92.7338 146.621 91.8324C147.059 90.7758 148.09 90.414 149.143 90.7275Z" fill="#19233C"/>
<path d="M177.959 66.1193C178.013 65.3436 178.323 64.5676 178.854 63.9967C179.435 63.3777 180.322 62.98 181.156 63.3581C183.832 64.5517 183.999 68.8351 181.109 69.9277C178.29 70.9898 175.671 67.767 176.773 65.1316C177.388 63.6494 179.208 62.7786 180.717 63.4386C182.16 64.073 182.934 65.8438 182.403 67.3285C181.877 68.8055 180.229 69.6735 178.706 69.4655C177.062 69.2393 175.857 67.97 175.274 66.4779C174.342 64.1123 177.993 62.5979 178.931 64.9694C178.962 65.0414 179.251 65.6874 179.306 65.583C179.363 65.4922 178.915 65.6639 178.884 65.6889C178.654 65.8795 178.569 66.3756 178.705 66.6617C178.841 66.9479 179.05 66.9609 179.358 67.0367C179.99 67.2 180.08 67.0493 180.454 66.5899C180.486 66.3709 180.488 66.336 180.474 66.4833C180.457 66.6171 180.454 66.5899 180.474 66.3863C180.453 66.3338 180.432 66.2813 180.417 66.221C180.497 66.4039 180.501 66.4311 180.428 66.3026C180.35 66.1818 180.367 66.2071 180.478 66.365C180.43 66.3162 180.384 66.2809 180.336 66.2321C180.382 66.2673 180.421 66.2967 180.467 66.3319C180.388 66.2596 180.299 66.2163 180.2 66.2021C179.962 66.1792 179.678 66.1831 179.479 66.3487C179.397 66.4083 179.339 66.4855 179.317 66.5785C179.259 66.7178 179.263 66.6965 179.348 66.505C179.334 66.5553 179.328 66.6115 179.314 66.6619C179.335 66.4583 179.337 66.4234 179.342 66.5612C179.349 66.6641 179.341 66.6582 179.327 66.5495C179.3 66.4076 179.31 66.4271 179.343 66.6233C179.467 66.7658 179.522 66.9175 179.721 67.0081C180.489 66.7997 181.263 66.5836 182.023 66.3694C181.739 66.678 181.931 66.1534 181.905 66.5724C181.828 67.6352 180.731 68.4215 179.703 68.2983C178.58 68.188 177.884 67.1957 177.959 66.1193Z" fill="#19233C"/>
<path d="M165.119 81.4986C167.295 81.3132 169.414 82.8388 169.616 85.089C169.817 87.2286 168.043 89.194 165.929 89.3294C163.588 89.4749 161.657 87.3491 161.896 85.0319C162.006 83.9577 162.573 82.9875 163.458 82.3685C164.538 81.6054 165.776 81.5476 167.012 81.8779C168.041 82.1603 168.478 83.5408 168.109 84.4426C167.675 85.5263 166.573 85.8216 165.544 85.5393C165.767 85.599 165.87 85.5434 165.616 85.6058C165.863 85.5375 165.846 85.4152 165.699 85.6083C165.818 85.4674 165.838 85.4578 165.75 85.5737C165.656 85.6972 165.673 85.674 165.795 85.4983C165.831 85.3064 165.841 85.2774 165.819 85.4189C165.81 85.5585 165.806 85.5313 165.815 85.3432C165.849 85.5394 165.853 85.5666 165.828 85.4383C165.796 85.3042 165.808 85.3373 165.874 85.5221C165.769 85.3565 165.759 85.337 165.844 85.4501C165.936 85.5691 165.905 85.5456 165.767 85.3914C165.935 85.507 165.952 85.5323 165.822 85.4461C165.753 85.3932 165.666 85.3636 165.576 85.3688C165.772 85.3837 165.796 85.4013 165.656 85.3926C165.518 85.3975 165.538 85.3879 165.73 85.3756C165.669 85.3907 165.615 85.3981 165.563 85.4191C165.765 85.3293 165.773 85.3351 165.56 85.454C165.605 85.4272 165.648 85.3867 165.693 85.3598C165.867 85.2116 165.861 85.2193 165.675 85.383C165.711 85.3366 165.74 85.298 165.775 85.2517C165.653 85.476 165.648 85.4837 165.736 85.2709C165.716 85.329 165.704 85.3929 165.69 85.4433C165.709 85.2261 165.715 85.2183 165.696 85.4355C165.71 85.4822 165.731 85.5347 165.738 85.5891C165.64 85.3808 165.654 85.379 165.763 85.5718C165.729 85.5211 165.696 85.4841 165.661 85.4334C165.825 85.5703 165.843 85.5956 165.733 85.4998C165.669 85.4392 165.6 85.3864 165.524 85.3412C165.704 85.4414 165.735 85.4649 165.602 85.4C165.47 85.3486 165.491 85.3527 165.679 85.4102C165.454 85.3854 165.454 85.3854 165.664 85.3984C164.604 85.4943 163.595 84.8007 163.44 83.7072C163.289 82.7031 164.051 81.5886 165.119 81.4986Z" fill="#19233C"/>
</svg>
