<svg width="113" height="115" viewBox="0 0 113 115" fill="none" xmlns="http://www.w3.org/2000/svg">
<path d="M102.243 90.4258C97.6872 101.658 83.4678 107.863 72.1291 103.551C68.9783 102.35 66.0864 100.479 62.8225 99.6457C54.872 97.6195 46.0382 102.063 38.4565 98.9286C33.8919 97.0405 30.7379 92.6741 29.0592 88.0365C27.3805 83.3989 26.9287 78.4153 26.2897 73.5183C25.2538 65.6328 23.6369 57.7969 20.8713 50.3431C19.1725 45.7603 16.9923 41.0555 17.5827 36.1988C18.4359 29.144 24.7267 24.1773 30.6318 20.2309C40.4572 13.6737 51.1223 7.51624 62.8998 6.60323C74.6792 5.70004 87.7421 11.5255 91.6595 22.6689C92.9736 26.4089 93.1945 30.449 94.4614 34.2082C96.8401 41.2879 102.786 47.1069 103.5 54.5346C103.95 59.2946 102.141 63.9561 100.149 68.2962C98.2055 72.5152 96.093 77.6113 98.6177 81.5072C99.2795 82.5212 100.213 83.361 100.69 84.4714C101.795 87.0603 100.227 90.6883 102.358 92.5215" fill="#D4D5EB"/>
<path d="M27.3803 35.3263C29.1303 34.4963 29.7203 32.6063 28.7503 30.9463C27.1703 28.2463 22.0303 24.8663 19.6603 28.2563C19.0703 28.6563 18.5803 29.1863 18.3103 29.8663C17.5503 31.7463 19.3003 33.5663 20.8003 34.3863C22.6103 35.3963 25.3803 36.2763 27.3803 35.3263ZM20.5703 29.9963C20.6403 29.9963 20.7103 29.9963 20.7903 29.9763C22.5803 29.5763 25.2503 29.1863 26.3603 31.0163C26.8303 31.7963 26.9303 32.3163 26.5903 33.1463C26.1703 34.1663 25.7603 33.8663 24.7603 33.7163C23.1403 33.4763 21.2203 32.9163 20.6303 31.1763C20.4803 30.7263 20.4703 30.3363 20.5703 29.9963Z" fill="#19233C"/>
<path d="M7.1603 27.5362C4.7403 25.8862 1.13029 26.1962 0.0502882 29.2062C-0.149712 29.7562 0.2803 30.1262 0.7503 30.1462C1.2003 32.7762 4.0203 34.8262 6.6603 33.8062C9.4803 32.7162 9.4903 29.1262 7.1603 27.5362ZM2.40029 30.2662C1.61029 27.4762 5.00029 28.0362 6.24029 29.0762C6.36029 29.1762 6.48032 29.2262 6.61032 29.2562C7.49032 30.1562 7.74031 31.3462 6.42031 32.1862C4.84031 33.1862 2.86029 31.8762 2.40029 30.2662Z" fill="#19233C"/>
<path d="M13.3803 44.2264C12.8703 43.5364 12.0803 42.8064 11.1903 42.3064C11.0203 42.0964 10.7603 41.9464 10.4703 41.9664C9.82031 41.7164 9.1503 41.6064 8.5203 41.7364C7.8403 41.8764 7.2903 42.2864 6.9003 42.8264C6.2303 43.1264 5.76031 43.6364 5.78031 44.6564C5.82031 46.4764 7.8003 48.7664 9.2703 49.6964C9.8303 50.0464 10.4303 50.2364 11.0103 50.2564C12.3603 50.6164 13.6403 50.2764 14.3203 48.6664C14.8503 47.4064 14.5903 46.1764 13.9003 45.1464C13.7603 44.8164 13.6003 44.5064 13.3803 44.2264ZM7.85032 44.5564C8.97032 43.7264 10.4403 44.2364 11.5003 45.0064C11.9103 45.3064 12.4003 45.9064 12.7103 46.5264V46.5364C12.8103 47.7064 12.0703 48.5964 11.1103 48.6264C9.93033 48.2964 8.6903 47.0464 8.1503 46.1464C7.8503 45.6264 7.76032 45.0464 7.85032 44.5564Z" fill="#19233C"/>
<path d="M24.4103 48.3563C24.3803 48.8763 24.7803 49.1163 25.1803 49.0963C25.4203 49.6863 25.8403 50.2263 26.3503 50.6363C27.5803 51.6063 29.4903 52.4663 31.1503 52.2563C32.7903 52.2663 34.3203 51.1463 34.2203 49.3763C33.9703 44.9063 24.7103 42.9163 24.4103 48.3563ZM29.1203 49.6763C28.7103 49.2963 27.0103 47.8663 26.9603 47.3063C27.0003 47.2663 27.0503 47.2163 27.1003 47.1763C27.2103 47.0863 27.3803 46.9963 27.5703 46.9263C27.9903 46.9263 28.5503 47.0463 29.0303 47.1763C29.1903 47.2963 29.3803 47.3463 29.5603 47.3363C29.7303 47.3963 29.8703 47.4463 29.9603 47.4763C31.0003 47.8763 33.3303 49.3663 31.6203 50.5263C31.5003 50.6063 31.3603 50.6663 31.2203 50.7163C30.5003 50.6963 29.6603 50.1763 29.1203 49.6763Z" fill="#19233C"/>
<path d="M30.9503 61.2864C30.7003 61.0964 30.4103 60.8764 30.0803 60.6464C30.0403 60.2864 29.7903 59.9564 29.3303 59.9264C29.1903 59.9164 29.0303 59.9064 28.8703 59.8864C27.4103 59.0764 25.7003 58.5564 24.5003 59.5664C24.2703 59.7564 24.1103 59.9664 23.9903 60.1964C21.8303 61.4964 23.0603 64.3664 24.5003 65.9264C24.7303 66.1764 25.0203 66.2164 25.2603 66.1164C26.0103 66.8864 26.8603 67.5264 27.6103 67.9664C29.3003 68.9464 32.0003 69.6464 33.0903 67.4564C34.2103 65.2164 32.7203 62.6664 30.9503 61.2864ZM27.1003 64.3064C26.6503 63.8164 26.2503 63.2764 25.9303 62.6964C25.7503 62.3864 25.6003 62.0664 25.4703 61.7264C25.7003 61.3264 26.1103 61.1964 26.6903 61.3464C26.7903 61.3264 26.9003 61.3164 27.0103 61.3064C27.2803 61.3764 27.5503 61.4664 27.7903 61.5564C29.1103 62.0764 30.4803 63.2764 30.7803 64.7364C31.0003 65.8264 30.0403 66.4164 29.0703 65.8964C28.3303 65.5064 27.6703 64.9164 27.1003 64.3064Z" fill="#19233C"/>
<path d="M48.7803 62.0262C48.4603 61.1762 47.8403 60.5562 47.0903 60.1962C46.3403 59.5762 45.4703 59.0762 44.5503 58.7662C44.1503 58.6262 43.6803 58.5062 43.2003 58.4362C42.9503 58.0662 42.4003 57.8562 41.9703 58.2562C41.9203 58.2962 41.8803 58.3462 41.8403 58.3862C41.1403 58.4562 40.4903 58.7062 40.0303 59.2362C38.8403 60.6262 39.9903 62.3262 41.1403 63.2762C41.2103 63.3362 41.3003 63.3962 41.3803 63.4562C42.1703 64.7862 43.4803 65.9362 44.7803 66.5862C46.1403 67.2762 48.0503 67.7062 49.1003 66.2662C49.9703 65.0762 49.5503 63.4762 48.8603 62.2662C48.8303 62.1862 48.8103 62.1062 48.7803 62.0262ZM42.7103 62.4862C42.6403 62.4462 42.5803 62.3962 42.5203 62.3462C42.1503 61.5562 42.0903 60.7062 42.6103 59.9162C42.7803 59.9262 42.9903 59.9662 43.2803 60.0262C43.6203 60.0962 43.9603 60.2062 44.2903 60.3262C44.0903 60.8362 44.5003 61.5862 45.2203 61.4362C45.5803 61.3562 45.9303 61.3862 46.2503 61.5062C46.6603 61.8662 47.0303 62.2762 47.3403 62.7362C47.2903 62.8962 47.1403 63.0462 46.9003 63.1962C46.6603 63.8162 46.2303 63.9762 45.6203 63.6662C44.5703 63.4762 43.5803 63.0662 42.7103 62.4862ZM46.7003 65.6462C46.3803 65.7162 45.9403 65.4862 45.5603 65.2562C45.9203 65.3062 46.2903 65.3462 46.6503 65.3362C46.8503 65.3362 47.0303 65.3062 47.2103 65.2662C47.0403 65.3962 46.8703 65.5162 46.7003 65.6462Z" fill="#19233C"/>
<path d="M61.9503 49.7562C60.6903 48.7862 58.2403 47.3962 56.6503 48.3062C55.0603 49.2162 55.5803 51.2362 56.4603 52.4362C57.0303 53.2162 57.7603 53.9062 58.5703 54.4662C59.3303 55.1962 60.2303 55.7962 61.1803 56.1862C62.3703 56.6862 63.8903 56.8062 64.5703 55.8162C65.0703 55.5562 65.4103 55.1162 65.4303 54.3962C65.4403 52.7462 63.5103 50.5962 61.9503 49.7562ZM62.8003 54.5462C61.9303 54.6662 60.7503 54.0462 59.8903 53.4862C59.3803 52.9362 58.9503 52.2762 58.4403 51.7762C58.9703 50.4862 60.3803 50.7262 61.3903 51.2862C62.0803 51.9662 62.6503 52.7262 62.9403 53.2962C63.1603 53.7162 63.2003 54.1662 63.0603 54.4762C62.9903 54.5062 62.9003 54.5262 62.8003 54.5462ZM58.0503 49.6362C58.2003 49.6162 58.3603 49.6262 58.5203 49.6362C58.4303 49.6862 58.3303 49.7362 58.2403 49.7862C58.0603 49.7262 57.9003 49.6962 57.7503 49.6962C57.8403 49.6662 57.9403 49.6462 58.0503 49.6362Z" fill="#19233C"/>
<path d="M43.0803 44.8862C43.6003 45.0962 44.2203 45.2362 44.8403 45.2462C49.3803 46.3462 48.0903 39.2763 45.0203 38.0863C44.6503 37.9363 44.3603 38.0962 44.2103 38.3562C42.0303 36.7062 38.7103 34.9462 38.1903 37.7662C38.0303 38.6262 38.3603 39.5162 38.8403 40.3162C38.8603 40.6162 38.9303 40.9262 39.0703 41.2462C39.7503 42.8062 41.5303 44.2562 43.0803 44.8862ZM41.8003 38.5662C42.8303 39.0962 47.8303 43.0063 44.9803 43.6663C44.9203 43.6763 44.8603 43.6863 44.8003 43.6963C43.9203 43.3263 42.7403 42.3862 42.4203 42.1062C41.7303 41.5262 41.1303 40.8462 40.6203 40.0962C40.6103 39.2662 41.0003 38.9363 41.6003 38.4463C41.6703 38.4963 41.7403 38.5362 41.8003 38.5662Z" fill="#19233C"/>
<path d="M43.8103 22.5664C42.2803 20.9864 39.5703 20.5464 37.5803 21.4264C36.3203 21.9864 34.9703 23.2964 34.7703 24.7464C34.4803 25.2864 34.4003 25.9264 34.6803 26.6864C35.4103 28.6864 37.6803 30.5964 39.7703 30.9264C43.9203 31.5864 46.6303 25.4664 43.8103 22.5664ZM41.1903 28.6064C39.9703 28.6064 38.2703 27.3064 37.3303 26.5064C37.8703 25.1864 39.2303 24.2764 40.7103 24.7364C42.3503 25.2464 43.8603 28.6164 41.1903 28.6064ZM43.0903 24.4964C42.4503 23.8064 41.6003 23.2964 40.6703 23.1164C40.0203 22.9964 39.3903 23.0364 38.8103 23.2064C38.7403 23.0164 38.6103 22.8564 38.4303 22.7664C38.5103 22.7364 38.5903 22.7064 38.6803 22.6864C40.2903 22.2264 42.5203 22.8164 43.0903 24.4964Z" fill="#19233C"/>
<path d="M18.4903 16.5562C18.1803 14.6862 16.5303 13.2462 14.7303 12.8262C12.9203 12.3962 11.0003 13.0962 10.0903 14.7662C9.68031 15.5162 9.60032 16.2862 9.75032 17.0062C9.35032 17.8162 9.27031 18.7162 9.93031 19.5762C10.7503 20.6662 12.5003 21.0962 14.0303 21.0462C15.0903 21.3462 16.1803 21.2862 17.1103 20.5062C17.7403 19.9862 18.0703 19.3262 18.1603 18.6462C18.4803 18.0162 18.6103 17.3062 18.4903 16.5562ZM15.3803 14.7462C15.8903 15.0462 16.2703 15.4362 16.5203 15.8662C16.1403 16.0962 15.9003 16.6762 16.2703 17.1462C16.4903 17.4262 16.6203 17.7562 16.6403 18.0962C16.3303 18.7262 15.7003 19.2262 14.7503 19.4262C14.6103 19.4562 14.4503 19.4762 14.2803 19.4862C14.1903 19.4562 14.1103 19.4262 14.0203 19.3862C13.1003 19.0162 12.0903 18.3362 11.5703 17.4762C11.5103 17.3762 11.4603 17.2662 11.4203 17.1562C11.4703 17.0962 11.5303 17.0362 11.6103 16.9862C11.8903 16.6862 12.2303 16.4362 12.5403 16.1762C13.1603 15.6862 12.5903 14.9062 11.9403 14.8962C12.0303 14.8062 12.1303 14.7262 12.2403 14.6462C13.1903 14.0262 14.4503 14.2062 15.3803 14.7462Z" fill="#19233C"/>
<path d="M27.5703 8.73633C27.6503 10.5563 28.6403 12.4563 30.2903 13.2263C31.7103 13.8863 33.1503 13.6263 34.3103 12.8663C35.3403 12.6863 36.2203 12.0763 36.7103 10.8963C37.1003 9.95633 37.0403 8.93633 36.6903 8.01632C36.6103 7.40632 36.3903 6.80633 36.0003 6.24633C35.0203 4.84633 32.8203 4.32633 30.8903 4.64633C30.8203 4.63633 30.7403 4.62633 30.6503 4.63633C29.9003 4.74633 29.3003 5.01633 28.8403 5.41633C27.8603 6.07633 27.2703 7.09632 27.5203 8.49632C27.5303 8.57632 27.5503 8.65633 27.5703 8.73633ZM30.2903 9.87633C29.7703 9.42633 29.3503 9.03632 29.2203 8.51632C29.5603 8.69633 30.0203 8.67633 30.2703 8.25633C31.0303 7.00633 32.6303 6.33633 33.9803 7.09633C34.4203 7.34633 34.8003 7.77632 35.0603 8.26632C35.1203 9.30632 34.6603 10.5663 33.9003 11.3363C32.5803 11.6163 31.2503 10.6963 30.2903 9.87633Z" fill="#19233C"/>
<path d="M53.2203 16.3164C54.0403 15.5664 54.4703 14.4464 54.1203 13.0564C53.5403 10.7864 50.9303 9.74642 48.7803 10.2264C47.6003 10.2164 46.5003 10.6664 46.1403 11.9964C46.1003 12.1364 46.0803 12.2864 46.0603 12.4264C44.8303 15.4964 48.0103 19.3164 51.2803 18.0664C52.0803 17.7664 52.7403 17.1064 53.2203 16.3164ZM48.5303 11.8464C48.7803 11.7864 49.0903 11.7964 49.4603 11.8764C49.6003 11.9064 49.7303 11.8964 49.8503 11.8664C49.6903 12.3464 49.9203 12.9364 50.5503 12.8564C50.9503 12.8064 51.5203 12.6864 51.9103 12.8264C52.6803 13.1164 52.4703 13.9464 52.2603 14.5864C52.1703 14.8464 52.0603 15.1164 51.9303 15.3764C51.6803 15.5864 51.3803 15.7464 51.0603 15.8264C49.9303 16.1064 48.8203 15.5264 48.1803 14.5964C47.6903 13.8764 47.5103 13.0064 47.7803 12.4364C47.9703 12.1964 48.2103 11.9964 48.5303 11.8464Z" fill="#19233C"/>
<path d="M69.1203 24.2464C70.5603 24.2564 72.3103 23.9364 73.1103 22.8764C74.0003 21.7064 72.9503 20.2264 71.9703 19.5064C71.7903 19.3764 71.5703 19.2364 71.3303 19.1164C70.9503 18.7564 70.4803 18.4664 69.9603 18.2664C68.4803 17.7064 66.8503 17.7564 65.4903 18.4664C64.2203 18.8764 63.3403 20.2164 63.7803 21.5664C64.3103 23.1964 66.4703 23.9564 68.0003 24.1664C68.1203 24.1864 68.2503 24.1964 68.3803 24.2064C68.6303 24.2464 68.8803 24.2564 69.1203 24.2464ZM67.2903 22.1264C66.7203 21.6964 66.2403 20.6364 66.7903 19.9564C67.0503 19.6364 67.9803 19.7464 68.3303 19.7864C68.7903 19.8464 69.7703 20.1764 70.5603 20.5964C70.7103 20.8664 70.7703 21.1864 70.6703 21.5764C70.4703 22.3264 69.8803 22.6364 69.2203 22.6864C69.0503 22.6964 68.8803 22.6864 68.7103 22.6764C68.1703 22.6064 67.6503 22.4064 67.2903 22.1264Z" fill="#19233C"/>
<path d="M60.2903 31.5663C61.1103 30.5763 61.6203 29.3562 61.1503 28.2462C60.6803 27.1462 59.4603 26.7462 58.1503 26.6862C57.5703 26.5662 56.9303 26.5363 56.2803 26.5663C55.3603 26.2863 54.5803 26.4963 53.9603 27.0063C52.8503 27.3663 51.8903 27.9163 51.3503 28.5863C50.1103 30.1363 50.6103 32.0662 52.2703 33.0462C52.3803 33.1062 52.4903 33.1562 52.6103 33.2162C52.7203 33.5262 52.8703 33.8063 53.0503 34.0563C55.3503 37.2563 58.9703 34.4063 60.2903 31.5663ZM53.8903 31.6963C53.8103 30.9263 53.9503 29.3962 54.5503 28.5762C54.7203 28.7162 54.9503 28.7762 55.2203 28.6862C55.5503 28.5762 55.9903 28.4462 56.4703 28.3562C56.7303 28.4562 56.9803 28.3962 57.1703 28.2462C57.2303 28.2362 57.3003 28.2363 57.3603 28.2363C58.1503 28.3363 59.0303 28.6763 59.2703 29.5363C59.3503 29.8163 59.2803 30.1862 59.1303 30.5762C58.6303 31.2362 57.7903 31.7962 57.2003 32.0162C56.2003 32.3962 55.0003 32.4163 53.9603 32.0663C53.9203 31.9463 53.9003 31.8263 53.8903 31.6963ZM52.3803 30.2162C52.3603 30.3562 52.3403 30.4963 52.3303 30.6463C52.3203 30.5063 52.3403 30.3662 52.3803 30.2162Z" fill="#19233C"/>
<path d="M78.1503 41.5663C77.1703 37.4063 70.8203 35.9663 68.5203 39.7963C68.1803 40.3563 68.6403 40.8763 69.1403 40.9463C69.2503 41.6263 69.5603 42.2963 69.9903 42.8463C70.4503 43.4263 71.0603 43.9863 71.7403 44.4463C72.6403 46.0263 74.2603 47.1763 76.1103 46.8963C77.8403 46.6263 78.8603 45.1063 78.7103 43.4063C78.6503 42.7563 78.4503 42.1363 78.1503 41.5663ZM72.9003 40.3863C73.2203 39.9763 73.0703 39.4763 72.7603 39.2063C74.1803 39.4163 75.6803 40.6463 76.5003 41.8963C77.2003 44.3163 74.3403 44.1463 72.9103 43.3063C72.4503 42.3263 72.2903 41.1663 72.9003 40.3863ZM71.4503 39.3463C71.5803 39.2863 71.7203 39.2463 71.8503 39.2163C71.8303 39.2363 71.8103 39.2563 71.7903 39.2763C71.2703 39.9363 71.0303 40.7163 70.9903 41.5363C70.4203 40.7363 70.2503 39.8563 71.4503 39.3463Z" fill="#19233C"/>
</svg>
