<svg width="307" height="225" viewBox="0 0 307 225" fill="none" xmlns="http://www.w3.org/2000/svg">
<path d="M21.3859 130.306C33.4728 138.611 48.8917 142.171 62.0314 149.066C68.5252 152.469 74.3215 156.883 76.6816 163.076C78.871 168.851 77.5704 174.849 76.1441 180.643C73.8034 190.248 71.3627 200.44 80.9923 207.965C91.4739 216.16 108.276 221.605 122.263 223.829C137.165 226.188 152.679 224.532 165.358 217.364C168.305 215.687 171.034 213.774 173.45 211.591C176.457 208.892 177.685 206.23 182.335 205.55C191.021 204.258 199.842 203.777 208.632 203.294C225.376 202.383 242.303 201.391 257.882 195.766C271.676 190.797 283.957 182.883 292.86 172.857C309.844 153.756 311.335 127.618 295.337 107.726C287.574 98.0906 276.369 91.562 263.156 87.8324C249.163 83.8717 234.291 82.6202 220.294 78.7118C212.71 76.5974 205.365 73.6029 199.533 69.0424C192.506 63.5416 188.111 56.3186 184.01 49.2054C177.501 37.8695 170.848 27.4456 159.23 19.077C138.339 4.03313 108.753 -2.23543 81.5135 1.62082C23.389 9.86332 -15.3285 68.2059 6.85096 113.199C10.0343 119.665 14.7531 125.408 21.0693 130.089C22.525 131.164 24.861 129.529 23.3906 128.441C-0.794217 110.515 0.373424 77.9387 11.2577 54.7873C21.5315 32.9275 42.6634 13.9451 70.1386 6.53849C96.6804 -0.621827 127.352 3.33146 150.203 16.4679C162.679 23.6386 171.312 33.1953 177.849 44.3882C184.345 55.5128 190.195 67.243 202.945 74.5619C225.342 87.4079 255.693 83.8181 278.107 96.6519C302.423 110.587 309.732 139.005 297.887 160.73C291.296 172.815 279.627 182.845 265.839 189.551C251.85 196.35 236.347 198.954 220.336 200.08C212.451 200.631 204.558 200.918 196.671 201.495C192.905 201.768 189.149 202.107 185.43 202.566C182.892 202.874 178.528 202.861 176.386 204.113C175.356 204.722 174.532 206.434 173.734 207.32C172.439 208.755 170.977 210.087 169.442 211.349C166.393 213.809 162.882 215.887 159.137 217.542C151.811 220.809 143.681 222.319 135.378 222.358C119.587 222.445 104.159 217.372 90.82 210.741C83.0863 206.894 77.0998 202.101 76.8826 194.288C76.7533 189.624 78.1898 184.975 79.2818 180.424C81.4899 171.231 82.0127 162.108 74.364 154.426C66.0712 146.074 52.6711 142.109 41.2642 137.489C34.8279 134.878 28.6057 132.017 23.074 128.224C21.5842 127.174 19.879 129.268 21.3859 130.306Z" fill="#111212"/>
</svg>
