<svg width="48" height="46" viewBox="0 0 48 46" fill="none" xmlns="http://www.w3.org/2000/svg">
<path d="M0 0V45.6737H47.64V0H0ZM46.411 1.22898V7.89248H1.22898V1.22898H46.411ZM1.22898 44.4447V9.12146H46.411V44.4447H1.22898Z" fill="#34E8BB"/>
<path d="M33.202 15.0561H39.6701L21.3079 34.3326L14.3839 28.4016L6.08093 37.7369L7.00021 38.5541L14.5006 30.1197L21.394 36.0237L40.4898 15.9779V22.3341H41.7188V13.8271H33.202V15.0561Z" fill="#34E8BB"/>
<path d="M39.1292 3.63867H19.3758V5.48214H39.1292V3.63867Z" fill="#34E8BB"/>
<path d="M7.45754 3.63867H5.61407V5.48214H7.45754V3.63867Z" fill="#34E8BB"/>
<path d="M11.409 3.63867H9.56558V5.48214H11.409V3.63867Z" fill="#34E8BB"/>
</svg>
