<svg width="575" height="680" viewBox="0 0 575 680" fill="none" xmlns="http://www.w3.org/2000/svg">
<path fill-rule="evenodd" clip-rule="evenodd" d="M698.687 -77.9601L700.857 -79.8438C699.926 -80.3775 698.997 -80.9015 698.07 -81.4157L696.338 -91.1086C695.699 -94.6833 692.283 -97.0633 688.708 -96.4244L671.721 -93.3886C658.981 -97.8184 646.247 -100.164 633.194 -100.126C604.363 -100.042 576.455 -88.3415 545.939 -67.0404C514.443 -45.0549 486.255 -9.65292 462.147 24.0434C453.137 36.6379 444.774 48.8623 436.957 60.2879C423.127 80.5022 411.008 98.2162 400.042 111.056C384.921 128.761 368.723 133.189 356.262 129.996C343.633 126.76 329.541 114.346 321.893 87.1691L321.722 86.5617C313.251 56.4568 299.292 6.84813 273.765 -33.2834C251.89 -67.6722 219.958 -97.2498 174.464 -100.081L130.321 -61.7489C137.839 -66.1457 145.12 -68.9499 152.061 -70.0324C196.067 -76.8953 226.462 -53.524 249.254 -17.6926C272.298 18.5355 285.306 64.3901 293.931 95.0381C303.361 128.551 323.194 151.511 349.052 158.136C359.966 160.932 371.025 160.582 381.679 157.487C373.302 161.304 365.779 166.439 359.302 172.869C335.998 196.003 330.955 231.214 343.124 267.242C350.301 288.492 362.716 315.416 375.902 344.015L375.903 344.018L375.904 344.018L375.904 344.018L375.905 344.022L375.909 344.029C382.816 359.011 389.936 374.452 396.627 389.78C416.8 435.997 433.973 482.879 436.841 523.107C439.814 564.792 434.591 593.155 421.771 614.77C413.141 629.322 400.368 641.996 381.951 653.811L388.63 691.185C416.571 675.491 437.999 657.012 452.31 632.883C470.286 602.573 475.492 565.954 472.257 520.582C468.918 473.752 449.426 421.988 429.167 375.576C421.595 358.228 414.006 341.792 406.913 326.43C394.364 299.251 383.367 275.433 376.763 255.88C367.655 228.917 373.158 209.144 384.316 198.067C395.625 186.84 417.482 179.83 450.796 188.831L451.54 189.033C488.442 199.005 549.251 215.437 607.362 213.792C657.158 212.382 708.206 197.402 739.682 151.431L727.111 81.0877C727.015 91.7316 725.396 101.13 722.183 109.093C701.814 159.575 658.242 176.831 606.357 178.3C553.899 179.786 497.626 164.706 460.058 154.555C435.004 147.785 411.645 147.535 391.98 153.585C402.903 148.46 413.171 140.413 422.132 129.921C434.049 115.967 447.756 95.9549 462.316 74.6974L462.317 74.6954C469.946 63.5568 477.81 52.0761 485.773 40.9455C509.778 7.39096 535.51 -24.3349 562.566 -43.2207C590.603 -62.791 612.717 -71.0177 633.278 -71.0773C647.12 -71.1174 661.379 -67.4603 677.403 -59.4774L679.106 -60.9563C687.226 -46.4767 695.503 -30.2944 702.866 -13.4365C708.146 -1.34683 712.877 10.9159 716.73 22.999L698.687 -77.9601ZM74.0886 -5.07458C80.3669 -13.8539 86.9967 -22.3208 93.8691 -30.0945L45.9435 11.5232C48.056 5.85782 50.6541 0.0418769 53.7613 -5.97303L29.2898 -35.0005C12.9385 -7.43855 3.62164 19.2786 3.29264 47.3306C2.87933 82.5674 16.6805 116.884 42.1681 154.56C68.4745 193.446 111.237 228.529 151.988 258.594C167.219 269.831 182.009 280.271 195.834 290.028C220.291 307.291 241.723 322.419 257.22 336.051C278.588 354.847 283.709 374.723 279.585 389.896C275.404 405.272 259.98 422.272 226.629 431.133L225.884 431.331C188.94 441.146 128.061 457.32 78.5585 487.8C36.1395 513.919 -0.57957 552.416 -4.85319 607.966L41.2053 662.6C35.9662 653.334 32.6692 644.385 31.4703 635.883C23.8694 581.979 52.976 545.248 97.1745 518.034C141.863 490.518 198.136 475.441 235.746 465.448C276.872 454.522 305.287 430.694 313.846 399.21C322.461 367.523 309.223 334.508 280.67 309.392C263.829 294.577 239.617 277.468 213.897 259.294L213.895 259.292L213.889 259.288C200.414 249.766 186.526 239.952 173.067 230.022C132.488 200.084 94.174 168.069 71.5764 134.665C49.8803 102.594 39.9946 76.9095 38.8934 53.3211C47.4481 36.453 59.5919 15.1971 74.0886 -5.07458ZM79.2399 707.715C88.6177 716.253 98.8469 724.507 109.464 732.337C135.901 751.833 163.785 768.006 184.912 778.84L163.219 797.128C160.443 799.469 156.295 799.116 153.954 796.339L79.2399 707.715Z" fill="white" fill-opacity="0.43"/>
</svg>
