<svg width="71" height="52" viewBox="0 0 71 52" fill="none" xmlns="http://www.w3.org/2000/svg">
<path d="M38.7969 5.32075C27.6451 3.75909 16.1041 12.1973 9.03841 20.7536C3.03076 27.9844 -1.26216 39.3885 7.70066 46.055C18.9376 54.4013 36.9727 50.2938 48.5745 45.3464C54.716 42.7217 60.4804 38.8767 64.1652 32.8138C65.8757 29.9292 66.8966 26.632 67.1364 23.2172C67.3762 19.8025 66.8275 16.3769 65.5395 13.2471C60.152 0.858879 47.2125 -1.94947 35.9269 1.17384C24.7814 4.53581 14.8557 11.4963 7.48177 21.121C2.61728 27.4201 -2.16207 37.1575 3.24967 44.7427C6.26565 48.9421 11.7625 50.4775 16.3595 51.3043C22.821 52.3633 29.4034 52.2123 35.8174 50.8581C52.7094 47.6429 72.3011 35.2809 70.7688 14.1133C70.6715 12.8666 68.8595 12.801 68.9446 14.1133C70.1607 30.9372 57.0874 41.6719 43.6979 46.6062C36.7693 49.1148 29.475 50.2399 22.1725 49.9264C16.4324 49.6901 9.50053 48.614 5.21978 44.0472C-2.46611 35.8846 7.91957 22.8008 13.4408 17.1841C21.9536 8.49655 34.0297 1.4363 46.0329 1.7775C49.3686 1.86997 52.6351 2.82527 55.5576 4.56311C58.4801 6.30095 60.9733 8.77052 62.8275 11.7642C67.2785 19.1394 65.6003 28.4831 60.4925 34.861C55.8591 40.6352 48.3313 43.6797 41.7643 45.7663C34.2516 48.2776 26.3326 49.0512 18.5242 48.0366C13.234 47.223 6.47239 44.8477 4.61172 38.8504C3.05508 33.7849 6.03459 28.2207 8.72222 24.2968C15.1312 14.9138 27.5843 5.70132 38.8577 7.23673C40.0131 7.39421 40.0009 5.43886 38.8577 5.26826L38.7969 5.32075Z" fill="#19233C"/>
</svg>
