<svg width="30" height="20" viewBox="0 0 30 20" fill="none" xmlns="http://www.w3.org/2000/svg">
<path d="M28.6544 6.944H23.6747V3.776C23.6747 3.072 23.1553 2.528 22.4832 2.528H10.7212V1.44C10.7212 0.64 10.1102 0 9.34642 0H2.22811C1.46435 0 0.853333 0.64 0.853333 1.44V2.528V18.752C0.853333 19.456 1.40324 20 2.04481 20H23.0331C23.4608 20 23.858 19.744 24.0718 19.36L29.6932 8.8C30.1514 7.968 29.571 6.944 28.6544 6.944ZM21.5972 6.944H8.97981C8.27714 6.944 7.60503 7.36 7.23842 8L2.93078 16.096V4.736H21.5972V6.944ZM22.4527 17.824H4.39721L9.04091 9.152H27.0964L22.4527 17.824Z" fill="#19233C"/>
</svg>
