<svg width="465" height="353" viewBox="0 0 465 353" fill="none" xmlns="http://www.w3.org/2000/svg">
<path d="M30.3722 202.81C59.0322 223.861 110.3 228.157 117.422 259.81C121.969 280.008 103.981 302.708 116.459 320.352C120.594 326.224 127.516 330.246 134.406 333.785C158.934 346.354 187.544 355.149 215.917 351.862C237.296 349.393 258.018 338.574 268.656 323.099C302.432 316.663 338.557 319.745 372.211 312.153C413.552 302.847 449.901 275.653 461.265 240.621C472.606 205.566 455.596 164.134 418.478 146.064C381.737 128.184 331.449 133.322 300.804 108.514C282.623 93.8139 275.867 71.8916 263.007 53.5559C229.675 6.05649 151.584 -12.3923 91.9263 9.73998C32.2953 31.853 -4.54829 89.3276 0.452357 144.479C2.44047 166.167 11.0206 188.579 30.3722 202.81Z" fill="#D4D5EB"/>
</svg>
