<svg width="75" height="73" viewBox="0 0 75 73" fill="none" xmlns="http://www.w3.org/2000/svg">
<path d="M34.3063 26.5224C34.294 26.6579 34.2443 26.7955 34.1572 26.9353C34.0731 27.0716 33.9741 27.1914 33.8604 27.2947C33.8458 27.3125 33.8153 27.3337 33.7687 27.3581C33.7254 27.3822 33.6773 27.4084 33.6246 27.4367C33.5748 27.4615 33.5248 27.4846 33.4747 27.5061C33.4245 27.5276 33.385 27.5415 33.3562 27.5477C33.331 27.5568 33.3098 27.5574 33.2926 27.5493C33.2786 27.541 33.2645 27.531 33.2502 27.5193C33.236 27.5077 33.2186 27.498 33.1982 27.4903C33.1807 27.479 33.1557 27.475 33.1233 27.4784C33.0845 27.4824 33.0593 27.4768 33.048 27.4616C33.0395 27.4428 33.0409 27.4083 33.0521 27.3581C33.0569 27.3412 33.0659 27.3174 33.0791 27.2866C33.0923 27.2558 33.1144 27.2159 33.1453 27.1669C33.1682 27.1351 33.186 27.1005 33.1985 27.0632C33.2143 27.0256 33.2142 26.9929 33.1982 26.9651C33.1852 26.9337 33.1518 26.911 33.098 26.8969C33.0442 26.8828 32.9622 26.8814 32.8521 26.8927C32.7388 26.9043 32.5945 26.9338 32.4194 26.9813C32.2278 27.0271 32.0304 27.0965 31.8272 27.1893C31.6273 27.2819 31.4334 27.3852 31.2455 27.4994C31.0609 27.6133 30.8915 27.7321 30.7373 27.8559C30.5831 27.9798 30.4579 28.099 30.3617 28.2136C30.2684 28.3246 30.2118 28.4269 30.192 28.5206C30.1718 28.611 30.2034 28.6798 30.2868 28.7268C30.3598 28.7684 30.4677 28.7999 30.6106 28.8212C30.7532 28.8393 30.9167 28.8536 31.101 28.8641C31.285 28.8714 31.4823 28.8806 31.6928 28.8917C31.9031 28.8995 32.1124 28.914 32.3207 28.9352C32.5323 28.956 32.7335 28.9877 32.9244 29.0303C33.1185 29.0725 33.2915 29.1316 33.4433 29.2077C33.5506 29.2654 33.6415 29.3215 33.7158 29.376C33.7901 29.4306 33.8515 29.4864 33.8999 29.5436C33.948 29.5976 33.988 29.6524 34.0199 29.708C34.0514 29.7604 34.0799 29.8147 34.1053 29.871C34.1219 29.9053 34.1488 29.9435 34.1858 29.9855C34.2257 30.0239 34.2683 30.0719 34.3135 30.1294C34.3587 30.187 34.4016 30.2546 34.4423 30.3322C34.4827 30.4066 34.5132 30.4967 34.5339 30.6026C34.5688 30.815 34.5458 31.0218 34.4651 31.2232C34.3876 31.4242 34.2778 31.6138 34.1357 31.792C33.9969 31.9699 33.8386 32.1334 33.6609 32.2826C33.4828 32.4285 33.3107 32.5525 33.1445 32.6547C32.9999 32.7448 32.8452 32.831 32.6802 32.9134C32.5152 32.9958 32.3445 33.0706 32.1682 33.1378C31.9915 33.2017 31.8106 33.2563 31.6254 33.3015C31.4439 33.3496 31.2624 33.383 31.0811 33.4016C30.7799 33.4325 30.4922 33.4195 30.2181 33.3626C29.9475 33.3086 29.705 33.1944 29.4908 33.0201C29.3866 32.9293 29.3083 32.8359 29.2559 32.7399C29.2031 32.6406 29.1716 32.5407 29.1613 32.4404C29.149 32.3206 29.1613 32.2015 29.1982 32.0832C29.2352 31.9648 29.2873 31.8515 29.3547 31.7431C29.4221 31.6348 29.4988 31.5369 29.5847 31.4495C29.6703 31.3589 29.756 31.2847 29.8416 31.2268C29.9606 31.1426 30.0848 31.0611 30.2141 30.9824C30.3464 30.9001 30.4795 30.8259 30.6134 30.7598C30.747 30.6904 30.8816 30.6308 31.0172 30.5809C31.1527 30.531 31.2848 30.4945 31.4133 30.4715C31.4677 30.4593 31.5367 30.4457 31.6202 30.4306C31.7037 30.4155 31.7827 30.4041 31.8572 30.3964C31.9058 30.3914 31.9476 30.4002 31.9826 30.4228C32.0177 30.4454 32.0329 30.4667 32.0285 30.4868C32.0159 30.5241 31.9886 30.5449 31.9465 30.5492C31.9077 30.5532 31.8614 30.5645 31.8077 30.5831C31.7478 30.6056 31.6874 30.6233 31.6266 30.6361C31.5657 30.6489 31.5118 30.6659 31.4649 30.6871C31.1044 30.8092 30.8029 30.9481 30.5604 31.1039C30.3211 31.2594 30.1322 31.4113 29.9936 31.5597C29.8583 31.7078 29.7693 31.8445 29.7265 31.97C29.6835 32.0922 29.6764 32.1829 29.7054 32.2421C29.7468 32.3262 29.8137 32.3881 29.9061 32.4277C29.9985 32.4673 30.1009 32.4928 30.2133 32.5041C30.3254 32.5122 30.4383 32.5121 30.552 32.5037C30.6657 32.4953 30.7626 32.4837 30.8429 32.4689C31.0297 32.4399 31.2358 32.3909 31.461 32.322C31.6895 32.2527 31.9181 32.1687 32.1469 32.0699C32.3789 31.9708 32.603 31.8595 32.8194 31.7358C33.0354 31.6089 33.2247 31.4766 33.3873 31.3388C33.5495 31.1978 33.6769 31.0522 33.7694 30.902C33.8617 30.7485 33.8998 30.5941 33.8838 30.4386C33.8785 30.3868 33.8653 30.3375 33.8441 30.2905C33.8258 30.2401 33.8009 30.1886 33.7693 30.1362C33.7111 30.0473 33.6107 29.9775 33.468 29.9267C33.325 29.8726 33.1557 29.8328 32.96 29.807C32.7672 29.7778 32.5572 29.7568 32.3301 29.7441C32.106 29.7279 31.8834 29.7115 31.6624 29.6949C31.4447 29.678 31.2362 29.6552 31.037 29.6266C30.8377 29.598 30.668 29.5549 30.5279 29.4973C30.3706 29.4316 30.2524 29.3636 30.1732 29.2932C30.0969 29.2192 30.0477 29.1228 30.0257 29.004C30.0211 28.9914 30.0091 28.9697 29.9895 28.939C29.97 28.9083 29.9471 28.8763 29.9208 28.843C29.8977 28.8093 29.8748 28.7773 29.852 28.747C29.8293 28.7166 29.812 28.6922 29.8003 28.6737C29.7389 28.5851 29.7025 28.4858 29.6912 28.3757C29.6785 28.2527 29.6931 28.1235 29.7348 27.9884C29.7798 27.8528 29.8396 27.7338 29.9141 27.6313C30.0513 27.4372 30.2383 27.2511 30.4753 27.073C30.7155 26.8945 30.9803 26.7331 31.2698 26.5889C31.5593 26.4446 31.8593 26.3222 32.1696 26.2216C32.4829 26.1174 32.7815 26.0458 33.0655 26.0069C33.1817 25.9916 33.3137 25.9863 33.4614 25.9907C33.6091 25.9952 33.7471 26.017 33.8755 26.0562C34.0068 26.0918 34.114 26.1479 34.1971 26.2244C34.2799 26.2977 34.3163 26.3971 34.3063 26.5224ZM38.1767 29.6541C38.1916 29.7671 38.1962 29.9074 38.1905 30.0749C38.1845 30.2391 38.1765 30.4166 38.1667 30.6074C38.1565 30.795 38.1484 30.9872 38.1424 31.1842C38.1365 31.3812 38.1423 31.5654 38.16 31.7371C38.1716 31.8504 38.1908 31.958 38.2177 32.06C38.2442 32.1587 38.2807 32.2433 38.3272 32.3138C38.3542 32.3536 38.3693 32.3897 38.3727 32.422C38.3792 32.4541 38.3806 32.4834 38.3768 32.51C38.3726 32.5333 38.3681 32.5534 38.3633 32.5703C38.3589 32.5903 38.3607 32.6082 38.3688 32.6237C38.377 32.6392 38.3772 32.6572 38.3695 32.6776C38.3621 32.7013 38.3495 32.7222 38.3317 32.7404C38.3143 32.7618 38.293 32.7771 38.2677 32.7862C38.246 32.7983 38.2248 32.7988 38.2041 32.7879C38.1661 32.7689 38.1356 32.7589 38.1126 32.758C38.0929 32.7567 38.0751 32.7586 38.0592 32.7635C38.0469 32.7713 38.0346 32.7791 38.0224 32.7869C38.0133 32.7944 38.0004 32.7957 37.9835 32.7909C37.9255 32.7674 37.8621 32.7395 37.7933 32.7073C37.7245 32.6751 37.6781 32.6374 37.654 32.594C37.6391 32.5759 37.6228 32.5449 37.6052 32.5009C37.5908 32.4565 37.5756 32.4041 37.5596 32.3436C37.5468 32.2827 37.5335 32.217 37.5197 32.1464C37.5059 32.0758 37.4939 32.0067 37.4837 31.939C37.3975 32.1508 37.2996 32.3294 37.1902 32.4748C37.084 32.6198 36.9734 32.7375 36.8583 32.8279C36.7468 32.9212 36.6329 32.9901 36.5164 33.0348C36.4031 33.0792 36.2979 33.1063 36.2008 33.1163C36.1004 33.1266 36.01 33.1228 35.9296 33.1049C35.8525 33.0866 35.7911 33.0619 35.7453 33.0306C35.5703 32.8882 35.4439 32.7719 35.3659 32.6818C35.2908 32.588 35.2533 32.5101 35.2535 32.4479C35.2484 32.239 35.279 32.0428 35.3452 31.8593C35.4114 31.6757 35.5002 31.5046 35.6116 31.346C35.7225 31.184 35.8498 31.0368 35.9932 30.9043C36.1396 30.7682 36.2891 30.6465 36.4417 30.5392C36.5972 30.4283 36.7511 30.3339 36.9035 30.2561C37.0555 30.1751 37.1942 30.1085 37.3198 30.0563C37.2954 29.8821 37.2716 29.7307 37.2486 29.6022C37.2285 29.4701 37.2072 29.3741 37.1847 29.3143C37.1155 29.1185 37.0257 28.9772 36.9153 28.8903C36.8047 28.8003 36.6781 28.7625 36.5356 28.7772C36.4449 28.7865 36.3561 28.83 36.2692 28.9076C36.1855 28.9849 36.1124 29.0857 36.0499 29.2099C35.9874 29.3341 35.9397 29.4748 35.9067 29.632C35.877 29.7889 35.8692 29.9517 35.8833 30.1204C35.8876 30.1625 35.8934 30.2028 35.9006 30.2413C35.9078 30.2798 35.9168 30.3198 35.9276 30.3612C35.9332 30.3836 35.9268 30.4006 35.9083 30.4123C35.8931 30.4237 35.8729 30.4339 35.8477 30.4431C35.8221 30.449 35.7949 30.4551 35.7661 30.4613C35.7373 30.4675 35.7135 30.4749 35.6948 30.4833C35.6792 30.4915 35.6668 30.4977 35.6574 30.5019C35.6477 30.5029 35.6378 30.5023 35.6278 30.5C35.6174 30.4946 35.6034 30.4862 35.5859 30.4749C35.5716 30.4633 35.5505 30.4491 35.5226 30.4323C35.4947 30.4155 35.4655 30.4022 35.4351 30.3922C35.4078 30.3819 35.3824 30.3731 35.3587 30.3657C35.3383 30.358 35.3196 30.3517 35.3028 30.3469C35.2888 30.3385 35.2812 30.3278 35.2799 30.3149C35.2592 30.1141 35.2817 29.9024 35.3472 29.6797C35.4159 29.4567 35.5157 29.2501 35.6467 29.0599C35.7806 28.8662 35.9405 28.7025 36.1264 28.5689C36.3155 28.4349 36.5218 28.3565 36.7453 28.3335C36.9266 28.3149 37.0865 28.3263 37.2249 28.3677C37.3633 28.4091 37.484 28.4687 37.5869 28.5465C37.6897 28.6243 37.7758 28.7136 37.8451 28.8145C37.9176 28.915 37.9757 29.0187 38.0194 29.1255C38.066 29.2287 38.1007 29.3282 38.1236 29.424C38.1495 29.5162 38.1672 29.5929 38.1767 29.6541ZM37.3864 30.609C37.2929 30.6546 37.1908 30.7125 37.0803 30.7828C36.9697 30.8531 36.8586 30.9348 36.7471 31.0281C36.6353 31.1181 36.5248 31.2211 36.4156 31.337C36.3065 31.4529 36.2065 31.5794 36.1159 31.7163C36.0078 31.8746 35.9321 32.0133 35.8887 32.1323C35.8452 32.2513 35.8212 32.3519 35.8166 32.4342C35.8116 32.5133 35.8212 32.5745 35.8453 32.6178C35.8693 32.6611 35.8948 32.6863 35.9217 32.6934C36.0261 32.7219 36.1302 32.7162 36.2341 32.676C36.3409 32.6323 36.4437 32.5662 36.5426 32.4775C36.6444 32.3852 36.7398 32.2789 36.8289 32.1585C36.9208 32.0345 37.0062 31.9096 37.0849 31.7837C37.1632 31.6545 37.2322 31.5297 37.2918 31.409C37.3511 31.2851 37.3991 31.1787 37.4358 31.0899L37.3864 30.609ZM42.173 28.2277C42.1653 28.2481 42.1437 28.3092 42.1084 28.411C42.073 28.5128 42.0274 28.6418 41.9714 28.7981C41.9184 28.9508 41.8564 29.1273 41.7853 29.3277C41.7172 29.5245 41.645 29.7299 41.5688 29.9439C41.4959 30.1575 41.4216 30.3746 41.3461 30.595C41.2706 30.8155 41.1973 31.0259 41.1262 31.2263C41.0581 31.4231 40.9949 31.6046 40.9367 31.7709C40.8818 31.9369 40.8354 32.0742 40.7974 32.1828C40.7842 32.2136 40.7678 32.2448 40.7481 32.2762C40.7317 32.3074 40.7133 32.3355 40.693 32.3604C40.6726 32.3854 40.6502 32.4057 40.6256 32.4214C40.6046 32.4399 40.5842 32.4485 40.5644 32.4473C40.545 32.4493 40.522 32.4484 40.4954 32.4445C40.4721 32.4404 40.4507 32.4393 40.4313 32.4413C40.4219 32.4455 40.4145 32.4529 40.409 32.4632C40.4035 32.4736 40.3963 32.4825 40.3872 32.49C40.3814 32.4972 40.372 32.5014 40.3591 32.5027C40.3494 32.5037 40.3356 32.497 40.3177 32.4824C40.3034 32.4708 40.2879 32.4626 40.271 32.4578C40.2545 32.4562 40.238 32.4546 40.2214 32.4531C40.2081 32.4511 40.1947 32.4476 40.1811 32.4425C40.1707 32.437 40.1629 32.4247 40.1577 32.4056C40.143 32.358 40.1149 32.2922 40.0736 32.2081C40.0351 32.1204 39.9799 31.9968 39.9079 31.8373C39.8355 31.6746 39.744 31.468 39.6332 31.2176C39.5256 30.9669 39.397 30.6545 39.2473 30.2805C39.1814 30.1171 39.11 29.9477 39.0331 29.7723C38.9559 29.5937 38.8816 29.4279 38.8103 29.2749C38.7421 29.1216 38.6811 28.9888 38.627 28.8765C38.5758 28.7607 38.5418 28.684 38.5248 28.6465C38.488 28.575 38.4732 28.5258 38.4802 28.4989C38.484 28.4724 38.5089 28.46 38.5549 28.4618C38.5848 28.4653 38.6196 28.4699 38.6594 28.4756C38.699 28.4781 38.737 28.4824 38.7737 28.4884C38.8135 28.4941 38.8485 28.5004 38.8787 28.5071C38.912 28.5135 38.937 28.5175 38.9535 28.519C38.9671 28.5242 38.9752 28.5233 38.9778 28.5165C38.9836 28.5094 38.9878 28.5024 38.9904 28.4956C38.9958 28.4852 39.0015 28.4765 39.0073 28.4693C39.016 28.4586 39.0301 28.4523 39.0495 28.4503C39.069 28.4483 39.0817 28.4453 39.0879 28.4414C39.0969 28.4339 39.1045 28.4283 39.1107 28.4244C39.1165 28.4172 39.1241 28.4115 39.1335 28.4073C39.1457 28.3995 39.1647 28.3926 39.1903 28.3867C39.2453 28.3811 39.2816 28.3839 39.2991 28.3952C39.3195 28.4029 39.3364 28.4241 39.3498 28.4587C39.354 28.4681 39.3751 28.5297 39.413 28.6436C39.4541 28.7572 39.5066 28.9024 39.5706 29.079C39.6375 29.2521 39.7115 29.4474 39.7927 29.6649C39.8769 29.8788 39.9625 30.0908 40.0495 30.3012C40.1398 30.5111 40.2288 30.7081 40.3164 30.8922C40.4072 31.076 40.4912 31.2244 40.5683 31.3376C40.5911 31.273 40.6239 31.178 40.6666 31.0526C40.7126 30.9268 40.7632 30.7825 40.8185 30.6198C40.877 30.4567 40.9392 30.2818 41.0051 30.095C41.0739 29.9047 41.1413 29.7162 41.2072 29.5294C41.276 29.3391 41.3406 29.1558 41.401 28.9794C41.4644 28.7995 41.5214 28.6382 41.5722 28.4955C41.6263 28.3525 41.6698 28.2352 41.703 28.1434C41.739 28.0481 41.7625 27.99 41.7734 27.9693C41.784 27.9453 41.7924 27.9313 41.7986 27.9274C41.8076 27.9199 41.8172 27.9173 41.8272 27.9196C41.8373 27.9218 41.8476 27.9273 41.8584 27.936C41.8691 27.9447 41.8829 27.9515 41.8997 27.9563C41.9305 27.9695 41.9633 27.9858 41.998 28.0051C42.0327 28.0245 42.0643 28.0457 42.0929 28.069C42.1247 28.0919 42.1486 28.1173 42.1645 28.1451C42.1805 28.1729 42.1833 28.2004 42.173 28.2277ZM45.8303 29.9529C45.834 29.9885 45.8399 30.0304 45.8481 30.0787C45.8564 30.1269 45.8636 30.1818 45.87 30.2433C45.8779 30.321 45.8766 30.4193 45.8659 30.5382C45.8549 30.6539 45.8299 30.7775 45.7911 30.9092C45.7555 31.0404 45.7021 31.1735 45.6308 31.3085C45.5596 31.4434 45.4676 31.5674 45.3549 31.6804C45.2422 31.7934 45.1048 31.8893 44.9427 31.9682C44.7842 32.0499 44.5981 32.1017 44.3844 32.1237C44.1933 32.1433 43.9936 32.1262 43.7852 32.0723C43.5803 32.0214 43.3875 31.9283 43.2067 31.793C43.0289 31.6542 42.8744 31.4721 42.7432 31.2467C42.615 31.0177 42.5339 30.7381 42.5 30.4078C42.4787 30.2006 42.4837 29.9939 42.5149 29.7878C42.5493 29.5814 42.6011 29.3846 42.6702 29.1976C42.7426 29.0101 42.831 28.8358 42.9355 28.6745C43.043 28.5097 43.1576 28.3671 43.2794 28.2466C43.4041 28.1225 43.5345 28.0224 43.6706 27.9462C43.81 27.8697 43.9477 27.8245 44.0837 27.8105C44.3201 27.7863 44.5182 27.8035 44.6781 27.8624C44.8412 27.9209 44.9737 28.0006 45.0757 28.1013C45.1777 28.2021 45.2529 28.3138 45.3015 28.4365C45.353 28.5555 45.3839 28.6652 45.3942 28.7656C45.4042 28.8628 45.3914 28.977 45.3558 29.1083C45.3231 29.236 45.2591 29.362 45.1639 29.4863C45.0684 29.6074 44.9388 29.7156 44.7751 29.8109C44.6112 29.903 44.4045 29.9619 44.1552 29.9875C44.0224 30.0011 43.9008 29.9956 43.7902 29.971C43.6826 29.9427 43.5855 29.9053 43.4989 29.8585C43.412 29.8086 43.336 29.7542 43.2711 29.6954C43.2091 29.6331 43.1556 29.5747 43.1108 29.5204C43.0731 29.7272 43.0681 29.965 43.0957 30.2337C43.1146 30.4183 43.1577 30.5824 43.2248 30.726C43.2948 30.8661 43.3821 30.9831 43.4866 31.0771C43.5912 31.1711 43.711 31.2389 43.8462 31.2807C43.9814 31.3224 44.1267 31.3353 44.2821 31.3194C44.4764 31.2994 44.6431 31.2496 44.7822 31.1698C44.9209 31.0869 45.0385 30.9897 45.1351 30.8784C45.2349 30.7667 45.3176 30.6485 45.3834 30.524C45.452 30.3959 45.5105 30.2802 45.5588 30.1771C45.6068 30.0707 45.6485 29.983 45.684 29.9139C45.7226 29.8445 45.7632 29.8092 45.8056 29.8082C45.8251 29.8062 45.8364 29.8214 45.8398 29.8537C45.8414 29.8699 45.8415 29.8863 45.8399 29.9028C45.8383 29.9193 45.8351 29.936 45.8303 29.9529ZM44.1827 28.2961C44.1244 28.3021 44.0497 28.3229 43.9584 28.3584C43.8701 28.3904 43.7772 28.4425 43.6799 28.5147C43.5859 28.5865 43.4941 28.681 43.4047 28.7982C43.315 28.9121 43.2412 29.0538 43.1833 29.2234C43.2263 29.1961 43.2632 29.1726 43.2939 29.1531C43.3279 29.1333 43.3513 29.1227 43.3643 29.1214C43.3708 29.1207 43.3812 29.1262 43.3954 29.1378C43.4829 29.2564 43.5845 29.3376 43.7002 29.3814C43.8189 29.4215 43.9478 29.4345 44.0871 29.4202C44.1972 29.4089 44.2893 29.3814 44.3633 29.3378C44.4403 29.2906 44.5017 29.2353 44.5475 29.1716C44.5933 29.108 44.6241 29.0411 44.6398 28.9707C44.6551 28.8972 44.6593 28.8264 44.6523 28.7584C44.6373 28.6127 44.5878 28.4967 44.5037 28.4104C44.4192 28.3209 44.3122 28.2828 44.1827 28.2961ZM52.9989 30.9297C52.9205 30.9312 52.6868 30.9503 52.2979 30.987C51.9123 31.0233 51.3891 31.0754 50.7285 31.1432C50.3982 31.1772 50.0963 31.2164 49.8227 31.2608C49.5524 31.3049 49.318 31.3487 49.1195 31.3919C48.9243 31.4349 48.768 31.4739 48.6505 31.5088C48.5366 31.5467 48.4709 31.5764 48.4535 31.5978C48.4183 31.6374 48.396 31.6593 48.3866 31.6636C48.3808 31.6707 48.3685 31.6621 48.3496 31.6379C48.3275 31.614 48.3066 31.5851 48.2867 31.5511C48.2701 31.5168 48.2794 31.4635 48.3145 31.3912C48.3354 31.3399 48.4059 31.246 48.526 31.1093C48.6494 30.9723 48.8018 30.7996 48.9833 30.5911C49.168 30.3824 49.3726 30.1437 49.597 29.8753C49.821 29.6036 50.0475 29.3071 50.2763 28.9858C50.5454 28.6113 50.7685 28.266 50.9454 27.9501C51.1224 27.6341 51.2564 27.3455 51.3474 27.0842C51.4416 26.8225 51.496 26.5879 51.5107 26.3802C51.5253 26.1726 51.5082 25.9894 51.4591 25.8308C51.4147 25.6849 51.3418 25.5647 51.2405 25.4704C51.1424 25.3758 51.0253 25.3027 50.8891 25.2513C50.7559 25.1963 50.6099 25.1605 50.4511 25.1441C50.2956 25.1274 50.1398 25.1237 49.9837 25.1332C49.7298 25.1462 49.5017 25.204 49.2996 25.3066C49.0971 25.4059 48.9291 25.5229 48.7957 25.6577C48.6652 25.7889 48.5729 25.926 48.5189 26.069C48.4645 26.2088 48.4603 26.327 48.5062 26.4237C48.5437 26.5017 48.6013 26.553 48.6791 26.5778C48.7569 26.6025 48.8428 26.61 48.9367 26.6004C49.0079 26.5931 49.0816 26.5773 49.1576 26.5532C49.2337 26.529 49.3058 26.4987 49.3741 26.4622C49.4456 26.4254 49.5101 26.3844 49.5676 26.3393C49.628 26.2905 49.6784 26.2395 49.7188 26.1863C49.7453 26.1574 49.7669 26.1454 49.7838 26.1502C49.8003 26.1517 49.8114 26.1637 49.8169 26.186C49.8254 26.2048 49.8279 26.2291 49.8244 26.2589C49.8206 26.2855 49.81 26.3095 49.7925 26.3309C49.7609 26.3734 49.7483 26.3943 49.7548 26.3937C49.7613 26.393 49.7835 26.4022 49.8214 26.4212C49.8587 26.4337 49.8875 26.4586 49.9076 26.4958C49.9278 26.533 49.9218 26.5859 49.8896 26.6547C49.8812 26.6686 49.8744 26.6824 49.8693 26.696C49.8671 26.7061 49.8619 26.7197 49.8539 26.7369C49.8487 26.7505 49.8407 26.7677 49.8297 26.7885C49.8184 26.806 49.8008 26.8258 49.7769 26.8479C49.5614 27.0434 49.3354 27.1534 49.099 27.1776C48.9695 27.1909 48.8441 27.1809 48.7229 27.1476C48.6013 27.111 48.4914 27.0601 48.3931 26.9949C48.2977 26.9262 48.2144 26.848 48.1432 26.7604C48.0749 26.6693 48.0276 26.5743 48.0011 26.4756C47.9717 26.3805 47.9633 26.2668 47.9759 26.1346C47.9917 26.0021 48.0283 25.8642 48.0855 25.7208C48.1428 25.5775 48.2215 25.4353 48.3215 25.2941C48.4244 25.1494 48.5483 25.0172 48.6931 24.8976C48.8411 24.7777 49.0123 24.6767 49.2068 24.5945C49.4009 24.5091 49.6192 24.4524 49.8618 24.4242C50.2273 24.3834 50.5356 24.3893 50.7864 24.4421C51.0372 24.4949 51.2475 24.5829 51.4173 24.7062C51.5902 24.8291 51.7285 24.9802 51.8319 25.1594C51.9383 25.335 52.027 25.5287 52.0978 25.7407C52.1575 25.908 52.1792 26.0874 52.1629 26.2789C52.1466 26.4703 52.1045 26.6661 52.0367 26.8661C51.9685 27.0629 51.8826 27.2615 51.7788 27.462C51.6751 27.6624 51.5658 27.8569 51.451 28.0454C51.3358 28.2307 51.2215 28.4077 51.1079 28.5764C50.9944 28.7451 50.8937 28.8962 50.806 29.0296C50.6934 29.208 50.5853 29.3664 50.4817 29.5046C50.3778 29.6396 50.2791 29.7627 50.1858 29.8737C50.0954 29.9811 50.0126 30.0829 49.9374 30.179C49.8619 30.2718 49.7946 30.3655 49.7356 30.4599C49.9511 30.3919 50.1892 30.3364 50.4498 30.2933C50.7133 30.2466 50.9714 30.2102 51.224 30.1843C51.3859 30.1677 51.5416 30.1549 51.6913 30.1461C51.8409 30.1373 51.9761 30.1316 52.0969 30.129C52.2177 30.1264 52.3209 30.1273 52.4064 30.1316C52.4919 30.1359 52.5501 30.1446 52.5809 30.1578C52.625 30.1729 52.6578 30.1892 52.6792 30.2066C52.7035 30.2205 52.7215 30.2366 52.7332 30.2551C52.7479 30.2699 52.7592 30.2851 52.7674 30.3007C52.7784 30.3126 52.7927 30.3242 52.8102 30.3355C52.8424 30.3617 52.8685 30.3933 52.8887 30.4305C52.9118 30.4642 52.8983 30.4917 52.8481 30.5132C52.8135 30.5266 52.7959 30.5464 52.7953 30.5727C52.7944 30.5957 52.8277 30.6331 52.8952 30.6851C52.9848 30.761 53.0449 30.8203 53.0755 30.8629C53.1093 30.9053 53.0837 30.9275 52.9989 30.9297ZM57.6939 26.7956C57.7271 27.1194 57.7336 27.4378 57.7134 27.7508C57.6961 28.0601 57.6528 28.3558 57.5836 28.6378C57.5141 28.9165 57.4181 29.1767 57.2957 29.4184C57.1732 29.66 57.0232 29.8718 56.8455 30.0536C56.6711 30.2352 56.4687 30.3836 56.2384 30.4988C56.0113 30.6138 55.7553 30.6859 55.4704 30.7152C55.3311 30.7295 55.179 30.714 55.014 30.6688C54.8523 30.6232 54.6893 30.5499 54.5251 30.449C54.3642 30.3477 54.2053 30.2184 54.0484 30.0611C53.8948 29.9034 53.7533 29.72 53.6238 29.5108C53.4975 29.3012 53.39 29.0669 53.3012 28.8076C53.2121 28.5452 53.1516 28.2585 53.1196 27.9477C53.0721 27.4846 53.0844 27.0629 53.1566 26.6824C53.2288 26.3019 53.3344 25.9606 53.4735 25.6583C53.6127 25.3561 53.7705 25.0928 53.9471 24.8685C54.1269 24.6439 54.3008 24.4575 54.4689 24.3093C54.6366 24.158 54.7836 24.0447 54.9101 23.9695C55.0394 23.8908 55.1218 23.848 55.157 23.8411C55.1826 23.8352 55.2131 23.8451 55.2485 23.871C55.2867 23.8932 55.3069 23.914 55.3089 23.9335C55.3131 23.9429 55.3166 23.9605 55.3192 23.9864C55.3219 24.0123 55.3215 24.0402 55.318 24.07C55.3177 24.0994 55.3157 24.1275 55.3119 24.154C55.3081 24.1806 55.3002 24.1994 55.2882 24.2105C55.2133 24.2771 55.1264 24.3711 55.0276 24.4925C54.9288 24.6139 54.8291 24.7583 54.7285 24.9257C54.6279 25.0931 54.5296 25.2832 54.4337 25.4959C54.3374 25.7054 54.256 25.933 54.1896 26.1787C54.1232 26.4244 54.0749 26.6863 54.0445 26.9642C54.0174 27.2419 54.0193 27.5313 54.0502 27.8325C54.0855 28.1757 54.1482 28.4998 54.2384 28.8046C54.3283 29.1063 54.4388 29.3698 54.57 29.5952C54.704 29.8171 54.8559 29.9896 55.0256 30.1129C55.1983 30.2326 55.385 30.2822 55.5857 30.2615C55.7509 30.2446 55.896 30.192 56.0211 30.1039C56.1459 30.0126 56.2553 29.8983 56.3491 29.761C56.4427 29.6205 56.5215 29.4635 56.5855 29.2901C56.6491 29.1134 56.7008 28.9313 56.7405 28.744C56.7834 28.5564 56.8148 28.3683 56.8347 28.1797C56.8578 27.9908 56.8724 27.8142 56.8784 27.65C56.8874 27.4822 56.8901 27.333 56.8865 27.2025C56.8829 27.072 56.8774 26.9711 56.8701 26.8998C56.8212 26.4238 56.7377 26.0086 56.6195 25.6543C56.5013 25.2999 56.3763 25.0068 56.2445 24.7749C56.1127 24.543 55.9903 24.3707 55.8772 24.258C55.7642 24.1452 55.6881 24.0892 55.6489 24.09C55.5835 24.0902 55.5302 24.0809 55.489 24.0622C55.4475 24.0403 55.4254 24.0164 55.4227 23.9905C55.4201 23.9646 55.4404 23.9396 55.4837 23.9155C55.5303 23.8911 55.607 23.8734 55.7139 23.8624C55.7916 23.8544 55.8877 23.8658 56.0021 23.8966C56.1198 23.9271 56.2451 23.9846 56.3781 24.0691C56.5108 24.1504 56.6467 24.2624 56.7857 24.4052C56.9247 24.548 57.0546 24.7293 57.1754 24.9493C57.2961 25.1692 57.4016 25.4316 57.4918 25.7365C57.5853 26.041 57.6526 26.3941 57.6939 26.7956ZM63.7002 23.3858C63.6973 23.4221 63.6927 23.4569 63.6863 23.4903C63.68 23.5237 63.6668 23.5545 63.6468 23.5827C63.579 23.6879 63.4942 23.834 63.3924 24.0212C63.2902 24.2051 63.1746 24.4182 63.0457 24.6605C62.9197 24.8992 62.7845 25.1602 62.6402 25.4433C62.4991 25.7262 62.3539 26.0176 62.2048 26.3176C62.0556 26.6176 61.9066 26.9192 61.7578 27.2225C61.6089 27.5257 61.4656 27.8186 61.3277 28.1011C61.1927 28.38 61.066 28.6434 60.9474 28.8912C60.8321 29.1386 60.7318 29.3567 60.6465 29.5454C60.5608 29.731 60.4929 29.8819 60.4427 29.9983C60.3954 30.1112 60.3709 30.1759 60.3693 30.1924C60.3558 30.22 60.3436 30.2441 60.3326 30.2649C60.3181 30.2827 60.3034 30.299 60.2885 30.3136C60.274 30.3314 60.2586 30.3412 60.2424 30.3429C60.2263 30.3445 60.2164 30.3439 60.2128 30.341C60.2125 30.3378 60.212 30.3329 60.2113 30.3264L60.2073 30.2876C60.1493 30.2641 60.0972 30.2351 60.0511 30.2005C60.0118 30.1686 59.9735 30.13 59.9361 30.0847C59.8984 30.0362 59.8741 29.9749 59.8633 29.9008C59.8628 29.8648 59.9006 29.7546 59.9766 29.5701C60.0554 29.382 60.1604 29.1454 60.2914 28.8604C60.4222 28.5721 60.5721 28.2474 60.7412 27.8865C60.9135 27.5252 61.0929 27.1533 61.2794 26.771C61.4659 26.3886 61.6528 26.0094 61.84 25.6335C62.0301 25.254 62.2086 24.9052 62.3755 24.587C62.5454 24.2652 62.6983 23.9861 62.8344 23.7496C62.9704 23.5131 63.0757 23.3436 63.1503 23.241C63.1909 23.191 63.2231 23.1534 63.2466 23.1281C63.2731 23.0992 63.3058 23.0827 63.3447 23.0787C63.3579 23.0806 63.3834 23.0895 63.421 23.1052C63.4586 23.121 63.4969 23.1433 63.5359 23.172C63.5745 23.1975 63.6105 23.2298 63.644 23.2689C63.6771 23.3047 63.6958 23.3437 63.7002 23.3858ZM61.1097 25.0704C61.138 25.3457 61.1294 25.6132 61.0841 25.8731C61.0417 26.1294 60.9607 26.3603 60.8411 26.5656C60.7244 26.7674 60.5699 26.9355 60.3775 27.0697C60.1848 27.2008 59.9557 27.28 59.6902 27.3072C59.5542 27.3212 59.4079 27.2986 59.2512 27.2394C59.0975 27.1767 58.9519 27.0804 58.8142 26.9505C58.6762 26.8174 58.556 26.6514 58.4538 26.4525C58.3545 26.25 58.2912 26.016 58.2639 25.7505C58.2356 25.4752 58.2413 25.2276 58.2808 25.0075C58.3204 24.7875 58.3806 24.5931 58.4615 24.4245C58.5452 24.2523 58.643 24.1048 58.7547 23.9821C58.8665 23.8593 58.9788 23.7578 59.0916 23.6775C59.2041 23.594 59.3106 23.5323 59.4113 23.4925C59.5148 23.4492 59.599 23.4242 59.6637 23.4175C59.8936 23.3939 60.0937 23.4306 60.2641 23.5276C60.4373 23.6211 60.583 23.7501 60.7014 23.9147C60.8194 24.076 60.9119 24.2596 60.9788 24.4654C61.0458 24.6712 61.0894 24.8729 61.1097 25.0704ZM59.73 23.6807C59.6264 23.6913 59.525 23.7557 59.4259 23.8739C59.3297 23.9885 59.2452 24.1379 59.1725 24.322C59.1027 24.5026 59.0503 24.7093 59.0153 24.9419C58.9835 25.1742 58.9801 25.4118 59.005 25.6547C59.024 25.8393 59.052 26.0164 59.0891 26.186C59.129 26.3521 59.1799 26.4974 59.2418 26.6219C59.3034 26.7432 59.377 26.8387 59.4627 26.9085C59.5516 26.9779 59.656 27.0064 59.7758 26.9941C59.8924 26.9821 59.9907 26.936 60.0708 26.8558C60.1506 26.7724 60.2156 26.6724 60.2658 26.556C60.319 26.436 60.3596 26.3059 60.3877 26.1655C60.4155 26.022 60.4341 25.8843 60.4435 25.7524C60.4561 25.6202 60.4619 25.5018 60.461 25.3972C60.4597 25.2893 60.4564 25.2095 60.4511 25.1577C60.4335 24.9861 60.4072 24.8104 60.3724 24.6307C60.3409 24.4507 60.2964 24.2884 60.239 24.1438C60.1816 23.9991 60.1108 23.8837 60.0267 23.7974C59.9455 23.7076 59.8466 23.6687 59.73 23.6807ZM65.0018 27.7434C65.0304 28.0219 65.0219 28.2895 64.9762 28.5461C64.9338 28.8024 64.8528 29.0333 64.7332 29.2386C64.6165 29.4404 64.4619 29.6084 64.2696 29.7427C64.0769 29.8738 63.8478 29.9529 63.5822 29.9802C63.4462 29.9942 63.2999 29.9716 63.1433 29.9124C62.9896 29.8496 62.8439 29.7533 62.7063 29.6235C62.5682 29.4904 62.4481 29.3244 62.3459 29.1255C62.2465 28.923 62.1834 28.6906 62.1565 28.4283C62.1282 28.1531 62.1339 27.9054 62.1734 27.6854C62.213 27.4653 62.2732 27.271 62.3541 27.1024C62.4378 26.9301 62.5356 26.7827 62.6473 26.6599C62.7587 26.5339 62.8708 26.4308 62.9837 26.3505C63.0965 26.2702 63.2032 26.2101 63.3039 26.1704C63.4074 26.127 63.4915 26.102 63.5563 26.0953C63.7862 26.0717 63.9863 26.1085 64.1566 26.2055C64.3299 26.299 64.4756 26.428 64.594 26.5925C64.712 26.7538 64.8045 26.9374 64.8714 27.1432C64.9384 27.3491 64.9818 27.5491 65.0018 27.7434ZM63.6226 26.3585C63.519 26.3692 63.4174 26.4319 63.318 26.5469C63.2218 26.6615 63.1389 26.8107 63.0694 26.9945C63 27.1784 62.9477 27.3866 62.9127 27.6193C62.881 27.8516 62.8775 28.0892 62.9025 28.3321C62.9214 28.5166 62.9495 28.6937 62.9865 28.8634C63.0232 29.0297 63.0725 29.1752 63.1344 29.2998C63.1959 29.4211 63.2712 29.5164 63.3601 29.5858C63.4491 29.6552 63.5534 29.6838 63.6732 29.6715C63.7898 29.6595 63.8882 29.6134 63.9683 29.5332C64.0481 29.4497 64.1131 29.3498 64.1633 29.2334C64.2164 29.1134 64.257 28.9832 64.2852 28.8429C64.313 28.6993 64.3315 28.5616 64.3409 28.4298C64.3535 28.2976 64.3592 28.1775 64.3579 28.0697C64.3566 27.9618 64.3534 27.882 64.348 27.8302C64.3304 27.6586 64.3042 27.4829 64.2694 27.3032C64.2346 27.1236 64.1886 26.963 64.1316 26.8216C64.0774 26.6767 64.0083 26.5611 63.9241 26.4748C63.8397 26.3853 63.7392 26.3465 63.6226 26.3585Z" fill="#19233C"/>
<path fill-rule="evenodd" clip-rule="evenodd" d="M36.4235 41.5033C36.9346 39.1212 36.8306 36.8613 36.5742 35.4978C36.547 35.353 36.4076 35.2578 36.2628 35.285C36.1181 35.3122 36.0228 35.4516 36.05 35.5963C36.2943 36.8954 36.3972 39.0835 35.9021 41.3914C35.4073 43.6976 34.3201 46.103 32.2029 47.8696C30.5981 49.2087 28.9439 49.8922 27.423 50.0715C28.2086 48.68 28.687 47.1351 28.7473 45.5521C28.8291 43.4027 28.3969 41.9276 27.6486 41.0251C26.8905 40.1109 25.6876 39.4211 24.645 39.5869C22.5945 39.913 20.3073 42.4067 20.2621 44.9872C20.2171 47.5602 22.1745 49.557 24.4774 50.3194C25.0859 50.5209 25.7423 50.6353 26.4301 50.6518C25.097 52.5771 23.1282 54.1101 20.9003 54.8436C18.9106 55.4987 16.7217 55.5131 14.5994 54.6032C12.6107 53.7506 10.4712 51.9457 8.79547 49.1869C9.86213 49.9869 10.6621 49.9869 11.7288 49.9869C11.8702 50.0281 12.0182 49.9468 12.0593 49.8054C12.1005 49.664 12.0192 49.516 11.8778 49.4748C10.3955 49.4536 9.86213 49.1869 8.49149 48.6198C8.41273 48.5969 8.32779 48.6115 8.26121 48.6594C8.19463 48.7074 8.15381 48.7833 8.15054 48.8652L7.96969 53.3948C7.96382 53.542 8.07835 53.666 8.22551 53.6719C8.37267 53.6778 8.49673 53.5633 8.5026 53.4161L8.5288 49.4536C10.2249 52.1756 12.3336 54.7029 14.3955 55.5869C16.6487 56.5529 19.059 56.5452 21.1597 55.8536C23.6136 55.0457 25.6804 52.8105 27.0806 50.6384C28.8246 50.5258 30.7287 49.7943 32.5446 48.2791C34.7797 46.4142 35.9121 43.8872 36.4235 41.5033ZM26.7771 50.118C26.0158 50.1374 25.2968 50.0289 24.645 49.8131C22.5461 49.1183 21.1191 47.3088 21.1597 44.9872C21.2001 42.673 23.0792 40.8026 24.8818 40.516C25.7658 40.3754 26.617 40.6166 27.238 41.3655C27.8688 42.1263 28.2937 43.449 28.2143 45.5318C28.153 47.1418 27.6304 48.7176 26.7771 50.118Z" fill="url(#paint0_linear_2479_16709)"/>
<defs>
<linearGradient id="paint0_linear_2479_16709" x1="32.1186" y1="50.2426" x2="8.79547" y2="48.6536" gradientUnits="userSpaceOnUse">
<stop stop-color="#24193F" stop-opacity="0.59"/>
<stop offset="1" stop-color="#24193F"/>
</linearGradient>
</defs>
</svg>
