<svg width="40" height="40" viewBox="0 0 40 40" fill="none" xmlns="http://www.w3.org/2000/svg">
<path d="M24.8006 0.00528952C24.7142 0.0188495 24.6332 0.0543143 24.5662 0.107942C24.4992 0.16157 24.4485 0.231404 24.4196 0.310096L21.1125 9.75839H10.2465C10.1428 9.75735 10.0415 9.7878 9.9572 9.84532C9.87293 9.90283 9.81009 9.98444 9.77782 10.0783C9.74554 10.1721 9.7455 10.2733 9.77771 10.3671C9.80991 10.461 9.87267 10.5426 9.9569 10.6002L18.4455 16.4346L14.666 26.3184C14.6365 26.4082 14.6364 26.5045 14.6657 26.5944C14.6949 26.6844 14.7522 26.7637 14.8299 26.8219C14.9075 26.8802 15.002 26.9146 15.1006 26.9205C15.1993 26.9265 15.2975 26.9038 15.3823 26.8554L24.8768 20.9774L34.3713 26.8554C34.4561 26.9038 34.5543 26.9265 34.653 26.9205C34.7516 26.9146 34.846 26.8802 34.9237 26.8219C35.0014 26.7637 35.0587 26.6844 35.0879 26.5944C35.1172 26.5045 35.117 26.4082 35.0875 26.3184L31.308 16.4346L39.7967 10.6002C39.8809 10.5426 39.9437 10.461 39.9759 10.3671C40.0081 10.2733 40.008 10.1721 39.9758 10.0783C39.9435 9.98444 39.8807 9.90283 39.7964 9.84532C39.7121 9.7878 39.6108 9.75735 39.5071 9.75839H28.6411L25.334 0.310096C25.2962 0.208103 25.2223 0.12185 25.1249 0.0662111C25.0276 0.0105718 24.9129 -0.010987 24.8006 0.00528952ZM24.8768 1.92108L27.8333 10.368C27.8651 10.4599 27.9262 10.5401 28.0082 10.5974C28.0902 10.6546 28.1889 10.686 28.2905 10.6873H37.9984L30.4394 15.8831C30.3539 15.943 30.2912 16.0279 30.261 16.1248C30.2307 16.2218 30.2345 16.3254 30.2717 16.4201L33.6702 25.3315L25.1359 20.0485C25.0582 20.0022 24.9684 19.9776 24.8768 19.9776C24.7851 19.9776 24.6954 20.0022 24.6177 20.0485L16.0834 25.3315L19.4819 16.4201C19.5191 16.3254 19.5229 16.2218 19.4926 16.1248C19.4624 16.0279 19.3997 15.943 19.3142 15.8831L11.7552 10.6873H21.463C21.5647 10.686 21.6634 10.6546 21.7454 10.5974C21.8273 10.5401 21.8885 10.4599 21.9202 10.368L24.8768 1.92108ZM9.25586 19.497C9.20892 19.5002 9.16272 19.51 9.1187 19.5258C8.20549 19.8013 7.00071 20.5266 5.76592 21.5432C4.53113 22.5598 3.30298 23.8692 2.50457 25.3313C2.46155 25.3852 2.43144 25.4474 2.41633 25.5136C2.40123 25.5798 2.4015 25.6483 2.41713 25.7144C2.43276 25.7804 2.46337 25.8424 2.50682 25.8961C2.55027 25.9497 2.6055 25.9936 2.66865 26.0247C2.73179 26.0558 2.80133 26.0735 2.87238 26.0763C2.94342 26.0792 3.01427 26.0672 3.07994 26.0412C3.14562 26.0153 3.20454 25.9759 3.25257 25.926C3.3006 25.8761 3.33659 25.8167 3.35801 25.7521C4.0762 24.437 5.24365 23.1969 6.40599 22.2399C7.56834 21.2829 8.76222 20.6106 9.4235 20.4112C9.5466 20.3858 9.65461 20.3161 9.72493 20.2165C9.79525 20.117 9.82243 19.9955 9.80077 19.8773C9.7791 19.7592 9.71028 19.6536 9.60872 19.5826C9.50715 19.5117 9.3807 19.481 9.25586 19.4968V19.497ZM9.25586 27.3924C9.14323 27.3964 9.03553 27.4374 8.95106 27.5085C6.32717 29.6059 2.62808 32.5179 0.995818 39.3806C0.972831 39.4424 0.963867 39.5082 0.969516 39.5736C0.975165 39.639 0.995298 39.7025 1.02859 39.7599C1.06188 39.8174 1.10758 39.8675 1.16266 39.9069C1.21775 39.9463 1.28098 39.9741 1.34819 39.9886C1.41539 40.003 1.48505 40.0038 1.55258 39.9907C1.6201 39.9777 1.68396 39.9511 1.73994 39.9129C1.79592 39.8746 1.84275 39.8255 1.87735 39.7688C1.91196 39.7121 1.93354 39.649 1.94069 39.5837C3.51677 32.9573 6.95689 30.3254 9.59114 28.2196C9.67256 28.1581 9.73119 28.0734 9.75849 27.9778C9.78579 27.8823 9.78032 27.781 9.74289 27.6886C9.70546 27.5962 9.63802 27.5177 9.55041 27.4644C9.46279 27.4111 9.35959 27.3859 9.25586 27.3924ZM0.965338 28.3212C0.875891 28.3233 0.788768 28.3488 0.713506 28.3949C0.638243 28.4409 0.577741 28.5058 0.53862 28.5825L0.0509425 29.5113C-0.00680061 29.6229 -0.0158417 29.7517 0.0257953 29.8695C0.0674323 29.9874 0.156362 30.0847 0.273152 30.1404C0.389943 30.196 0.525099 30.2053 0.649087 30.1663C0.773075 30.1273 0.875816 30.0431 0.934859 29.9322L1.42254 29.0034C1.46319 28.9307 1.48282 28.849 1.47941 28.7667C1.47601 28.6844 1.4497 28.6045 1.40318 28.5351C1.35666 28.4657 1.2916 28.4093 1.21466 28.3717C1.13772 28.3341 1.05168 28.3167 0.965338 28.3212ZM13.5688 31.1224C11.1018 31.5522 9.05261 32.9066 7.56423 34.3734C6.07585 35.8401 5.14463 37.3884 4.89724 38.4517C4.87426 38.5135 4.8653 38.5793 4.87095 38.6447C4.8766 38.7101 4.89673 38.7736 4.93002 38.8311C4.96331 38.8885 5.009 38.9386 5.06408 38.978C5.11916 39.0174 5.18239 39.0453 5.24959 39.0597C5.3168 39.0742 5.38645 39.0749 5.45397 39.0618C5.52149 39.0488 5.58535 39.0223 5.64133 38.984C5.69731 38.9458 5.74415 38.8967 5.77875 38.8399C5.81336 38.7832 5.83496 38.7201 5.84212 38.6549C6.01146 37.9269 6.8799 36.3918 8.26527 35.0265C9.65063 33.6612 11.5493 32.4204 13.7516 32.0367C13.8149 32.0254 13.8751 32.0024 13.929 31.9689C13.9828 31.9354 14.0292 31.8921 14.0655 31.8416C14.1017 31.791 14.1271 31.7341 14.1402 31.6741C14.1533 31.6142 14.1539 31.5523 14.1419 31.4922C14.1298 31.432 14.1054 31.3747 14.0701 31.3235C14.0348 31.2724 13.9892 31.2283 13.9359 31.194C13.8827 31.1596 13.8228 31.1356 13.7598 31.1233C13.6968 31.111 13.6319 31.1107 13.5688 31.1224Z" fill="#F47170"/>
</svg>
