<svg width="164" height="23" viewBox="0 0 164 23" fill="none" xmlns="http://www.w3.org/2000/svg">
<path d="M15.1165 0.545454H11.4432V11.5227H11.2898L3.75568 0.545454H0.517045V18H4.20739V7.0142H4.33523L11.929 18H15.1165V0.545454ZM18.1655 18H21.8558V10.7898H28.9553V7.74716H21.8558V3.58807H29.7223V0.545454H18.1655V18ZM31.5398 3.58807H36.8835V18H40.5312V3.58807H45.875V0.545454H31.5398V3.58807ZM53.7905 18H57.4808V12.3409H60.5831C64.5973 12.3409 66.9325 9.94602 66.9325 6.46023C66.9325 2.99148 64.6399 0.545454 60.6768 0.545454H53.7905V18ZM57.4808 9.38352V3.5625H59.9695C62.1001 3.5625 63.1314 4.72159 63.1314 6.46023C63.1314 8.19034 62.1001 9.38352 59.9865 9.38352H57.4808ZM72.6428 18.2472C74.5774 18.2472 75.8303 17.4034 76.4695 16.1847H76.5717V18H80.0149V9.17045C80.0149 6.05114 77.3729 4.73864 74.4581 4.73864C71.3217 4.73864 69.2592 6.23864 68.7564 8.625L72.1143 8.89773C72.3615 8.02841 73.1371 7.3892 74.4411 7.3892C75.6768 7.3892 76.3842 8.01136 76.3842 9.08523V9.13636C76.3842 9.98011 75.4893 10.0909 73.2138 10.3125C70.6229 10.5511 68.2962 11.4205 68.2962 14.3438C68.2962 16.9347 70.1456 18.2472 72.6428 18.2472ZM73.6825 15.7415C72.5661 15.7415 71.7649 15.2216 71.7649 14.2244C71.7649 13.2017 72.6087 12.6989 73.8871 12.5199C74.6797 12.4091 75.9751 12.2216 76.4098 11.9318V13.321C76.4098 14.6932 75.2763 15.7415 73.6825 15.7415ZM93.7237 8.64205C93.3999 6.23011 91.4567 4.73864 88.1499 4.73864C84.8004 4.73864 82.593 6.28977 82.6016 8.8125C82.593 10.7727 83.8288 12.0426 86.3857 12.554L88.6527 13.0057C89.7947 13.2358 90.3146 13.6534 90.3317 14.3097C90.3146 15.0852 89.4709 15.6392 88.201 15.6392C86.9055 15.6392 86.0447 15.0852 85.8232 14.0199L82.2521 14.2074C82.593 16.7131 84.7237 18.2557 88.1925 18.2557C91.5845 18.2557 94.0135 16.5256 94.022 13.9432C94.0135 12.0511 92.7777 10.9176 90.2379 10.3977L87.8686 9.92045C86.6499 9.65625 86.1982 9.23864 86.2067 8.60795C86.1982 7.82386 87.0845 7.3125 88.2095 7.3125C89.4709 7.3125 90.2209 8.00284 90.3999 8.84659L93.7237 8.64205ZM107.2 8.64205C106.876 6.23011 104.933 4.73864 101.626 4.73864C98.277 4.73864 96.0696 6.28977 96.0781 8.8125C96.0696 10.7727 97.3054 12.0426 99.8622 12.554L102.129 13.0057C103.271 13.2358 103.791 13.6534 103.808 14.3097C103.791 15.0852 102.947 15.6392 101.678 15.6392C100.382 15.6392 99.5213 15.0852 99.2997 14.0199L95.7287 14.2074C96.0696 16.7131 98.2003 18.2557 101.669 18.2557C105.061 18.2557 107.49 16.5256 107.499 13.9432C107.49 12.0511 106.254 10.9176 103.714 10.3977L101.345 9.92045C100.126 9.65625 99.6747 9.23864 99.6832 8.60795C99.6747 7.82386 100.561 7.3125 101.686 7.3125C102.947 7.3125 103.697 8.00284 103.876 8.84659L107.2 8.64205ZM109.785 22.9091H113.415V15.9034H113.526C114.029 16.9943 115.129 18.2131 117.242 18.2131C120.225 18.2131 122.552 15.8523 122.552 11.4716C122.552 6.97159 120.123 4.73864 117.251 4.73864C115.06 4.73864 114.012 6.04261 113.526 7.10795H113.364V4.90909H109.785V22.9091ZM113.339 11.4545C113.339 9.11932 114.327 7.62784 116.092 7.62784C117.89 7.62784 118.844 9.1875 118.844 11.4545C118.844 13.7386 117.873 15.3239 116.092 15.3239C114.344 15.3239 113.339 13.7898 113.339 11.4545ZM130.887 18.2557C134.859 18.2557 137.33 15.5369 137.33 11.5057C137.33 7.44886 134.859 4.73864 130.887 4.73864C126.915 4.73864 124.444 7.44886 124.444 11.5057C124.444 15.5369 126.915 18.2557 130.887 18.2557ZM130.904 15.4432C129.072 15.4432 128.134 13.7642 128.134 11.4801C128.134 9.19602 129.072 7.50852 130.904 7.50852C132.702 7.50852 133.64 9.19602 133.64 11.4801C133.64 13.7642 132.702 15.4432 130.904 15.4432ZM139.691 18H143.322V10.5938C143.322 8.98295 144.498 7.875 146.1 7.875C146.603 7.875 147.293 7.96023 147.634 8.07102V4.84943C147.31 4.77273 146.859 4.72159 146.492 4.72159C145.026 4.72159 143.825 5.57386 143.347 7.19318H143.211V4.90909H139.691V18ZM157.131 4.90909H154.668V1.77273H151.037V4.90909H149.247V7.63636H151.037V14.4545C151.02 17.0199 152.767 18.2898 155.401 18.179C156.338 18.1449 157.003 17.9574 157.369 17.8381L156.798 15.1364C156.619 15.1705 156.236 15.2557 155.895 15.2557C155.17 15.2557 154.668 14.983 154.668 13.9773V7.63636H157.131V4.90909Z" fill="#FAFBFD"/>
<path d="M161.618 18.2216C162.709 18.2216 163.655 17.3097 163.663 16.1761C163.655 15.0597 162.709 14.1477 161.618 14.1477C160.493 14.1477 159.564 15.0597 159.572 16.1761C159.564 17.3097 160.493 18.2216 161.618 18.2216Z" fill="#7073BE"/>
</svg>
