<svg width="26" height="22" viewBox="0 0 26 22" fill="none" xmlns="http://www.w3.org/2000/svg">
<path opacity="0.1" d="M0.544394 8.94543C1.9253 4.00688 5.33194 0.421875 8.64333 0.421875C8.90931 0.421875 9.17502 0.445026 9.43389 0.490802C9.58069 0.516584 9.70907 0.602874 9.78852 0.728101C9.86771 0.854117 9.89007 1.00723 9.84982 1.15035L9.16818 3.58858C9.10241 3.82403 8.87537 3.9832 8.63939 3.97241L8.58519 3.97136C7.35713 3.97136 5.11279 5.81187 3.96865 9.90252C3.9234 10.0648 3.88052 10.2308 3.83922 10.4039C5.12358 9.76834 6.65576 9.62128 8.04325 10.0077C11.1734 10.8835 13.0071 14.1421 12.132 17.2717C11.4228 19.8075 9.09004 21.5791 6.45924 21.5791C5.92334 21.5791 5.38824 21.5052 4.86865 21.3597C2.80452 20.7827 1.25261 19.069 0.498619 16.5353C-0.181971 14.2494 -0.164871 11.4831 0.544394 8.94543Z" fill="#2A68FA"/>
<path opacity="0.1" d="M22.2938 0.422852C22.5593 0.422852 22.8252 0.445476 23.0839 0.491252C23.2304 0.516508 23.359 0.603325 23.4382 0.728551C23.5174 0.854567 23.5398 1.00768 23.4998 1.1508L22.8179 3.58903C22.7521 3.82448 22.5293 3.98365 22.2891 3.97286L22.2354 3.97181C21.0074 3.97181 18.7628 5.81232 17.6186 9.90297C17.5731 10.0663 17.5302 10.2323 17.4892 10.4044C18.7741 9.76879 20.3057 9.62173 21.6932 10.0082C24.8228 10.884 26.657 14.1425 25.7815 17.2721C25.0722 19.808 22.7395 21.5795 20.1087 21.5795C19.5728 21.5795 19.0377 21.5056 18.5178 21.3601C16.454 20.7832 14.9021 19.0695 14.1478 16.5358C13.4675 14.2498 13.4843 11.4833 14.1938 8.94535C15.5755 4.00733 18.9816 0.422852 22.2938 0.422852Z" fill="#2A68FA"/>
</svg>
