<svg width="150" height="150" viewBox="0 0 150 150" fill="none" xmlns="http://www.w3.org/2000/svg">
<g filter="url(#filter0_d_1704_9934)">
<rect x="40" y="10" width="70" height="70" rx="15" fill="white"/>
<path d="M82.1429 32.6191C81.6379 32.6197 81.1537 32.8206 80.7966 33.1777C80.4395 33.5347 80.2387 34.0189 80.2381 34.5239V55.4763C80.2381 55.9815 80.4388 56.4659 80.796 56.8232C81.1532 57.1804 81.6377 57.381 82.1429 57.381C82.648 57.381 83.1325 57.1804 83.4897 56.8232C83.8469 56.4659 84.0476 55.9815 84.0476 55.4763V34.5239C84.0471 34.0189 83.8462 33.5347 83.4891 33.1777C83.132 32.8206 82.6479 32.6197 82.1429 32.6191Z" fill="#EE2A52"/>
<path d="M79.5238 54.4544C76.1076 51.3188 70.9254 49.4706 68.5714 49.1122V40.8879C70.9254 40.5295 76.1076 38.6813 79.5238 35.5457V54.4544Z" fill="#EE2A52"/>
<path d="M64.0187 54.5528C63.8848 54.4188 63.8095 54.2372 63.8095 54.0477V49.762H67.9386L66.8239 54.221C66.7853 54.3755 66.6961 54.5127 66.5705 54.6107C66.445 54.7088 66.2902 54.762 66.131 54.762H64.5238C64.3344 54.762 64.1527 54.6867 64.0187 54.5528Z" fill="#EE2A52"/>
<path d="M67.8571 40.9525H63.8095V49.0477H67.8571V40.9525Z" fill="#EE2A52"/>
<path d="M60 43.0953V46.9049C60.0006 47.473 60.2266 48.0177 60.6283 48.4194C61.0301 48.8211 61.5747 49.0471 62.1429 49.0477H63.0952V40.9525H62.1429C61.5747 40.9531 61.0301 41.1791 60.6283 41.5808C60.2266 41.9825 60.0006 42.5272 60 43.0953Z" fill="#EE2A52"/>
<path d="M86.9048 44.2858H89.2857C89.4752 44.2858 89.6568 44.3611 89.7908 44.495C89.9247 44.629 90 44.8107 90 45.0001C90 45.1895 89.9247 45.3712 89.7908 45.5052C89.6568 45.6391 89.4752 45.7144 89.2857 45.7144H86.9048C86.7153 45.7144 86.5336 45.6391 86.3997 45.5052C86.2657 45.3712 86.1905 45.1895 86.1905 45.0001C86.1905 44.8107 86.2657 44.629 86.3997 44.495C86.5336 44.3611 86.7153 44.2858 86.9048 44.2858Z" fill="#EE2A52"/>
<path d="M85.729 40.5558C85.8359 40.5558 85.9414 40.5316 86.0377 40.4851L88.1837 39.4534C88.3545 39.3713 88.4856 39.2247 88.5483 39.046C88.611 38.8672 88.6001 38.6708 88.518 38.5001C88.4359 38.3294 88.2893 38.1982 88.1106 38.1356C87.9318 38.0729 87.7354 38.0838 87.5647 38.1659L85.4189 39.1977C85.2729 39.2678 85.1551 39.3854 85.0848 39.5313C85.0144 39.6772 84.9958 39.8426 85.0318 40.0005C85.0679 40.1584 85.1565 40.2994 85.2832 40.4003C85.4098 40.5011 85.567 40.556 85.729 40.5558Z" fill="#EE2A52"/>
<path d="M86.0393 49.515L88.1851 50.5467C88.3558 50.6288 88.4869 50.7754 88.5496 50.9541C88.6123 51.1329 88.6014 51.3293 88.5193 51.5C88.4372 51.6707 88.2907 51.8018 88.1119 51.8645C87.9331 51.9272 87.7368 51.9163 87.566 51.8342L85.4202 50.8024C85.2508 50.7195 85.1211 50.573 85.0593 50.3948C84.9975 50.2166 85.0087 50.0212 85.0904 49.8513C85.1721 49.6813 85.3178 49.5506 85.4955 49.4876C85.6733 49.4246 85.8688 49.4344 86.0393 49.515Z" fill="#EE2A52"/>
</g>
<defs>
<filter id="filter0_d_1704_9934" x="0" y="0" width="150" height="150" filterUnits="userSpaceOnUse" color-interpolation-filters="sRGB">
<feFlood flood-opacity="0" result="BackgroundImageFix"/>
<feColorMatrix in="SourceAlpha" type="matrix" values="0 0 0 0 0 0 0 0 0 0 0 0 0 0 0 0 0 0 127 0" result="hardAlpha"/>
<feOffset dy="30"/>
<feGaussianBlur stdDeviation="20"/>
<feColorMatrix type="matrix" values="0 0 0 0 0 0 0 0 0 0 0 0 0 0 0 0 0 0 0.05 0"/>
<feBlend mode="normal" in2="BackgroundImageFix" result="effect1_dropShadow_1704_9934"/>
<feBlend mode="normal" in="SourceGraphic" in2="effect1_dropShadow_1704_9934" result="shape"/>
</filter>
</defs>
</svg>
