<svg width="150" height="150" viewBox="0 0 150 150" fill="none" xmlns="http://www.w3.org/2000/svg">
<g filter="url(#filter0_d_1704_9928)">
<rect x="40" y="10" width="70" height="70" rx="15" fill="white"/>
<g clip-path="url(#clip0_1704_9928)">
<path d="M77.7279 30.151C76.0469 29.7868 75.9909 30.0249 75.9909 31.4911C75.9886 32.4134 75.9897 34.8085 75.9909 37.2394C75.9921 39.6943 75.9933 42.1858 75.9909 43.2345C75.9909 44.243 76.0423 44.4718 77.261 44.4718C80.4402 44.5074 85.6988 44.4827 87.4874 44.4743C87.8109 44.4728 88.0208 44.4718 88.0845 44.4718C90.0225 44.5137 89.9807 44.0374 89.9112 43.2457L89.9102 43.2345C89.8275 42.2469 89.6188 41.274 89.2892 40.3395C88.8554 38.8498 88.1493 37.4535 87.2066 36.2211C84.9014 33.1006 81.5266 30.9394 77.7279 30.151Z" fill="#FAB33F"/>
<path d="M74.3937 46.0929C74.3315 46.0307 74.2966 45.9464 74.2966 45.8585C74.2873 43.804 74.2732 34.1992 74.2873 31.7338C74.2919 29.9828 74.2125 29.8801 72.6063 30.1182C70.6867 30.3922 68.8461 31.0668 67.2039 32.098C63.8093 34.5027 62.3571 36.0763 60.8443 39.5176C59.831 41.8289 59.9431 47.3013 60.41 48.9823C61.4891 52.5542 63.7771 55.6394 66.8817 57.7092C68.7903 58.9542 70.9727 59.717 73.2413 59.9318C74.8943 60.0533 77.0795 60.0533 78.7138 59.5863C80.1566 59.1567 83.0563 57.9987 84.5831 56.5979C85.7269 55.5992 86.7474 54.4674 87.6229 53.2267C88.3376 52.1336 88.8985 50.9474 89.2898 49.7014C89.5932 48.7915 89.8013 47.8526 89.9108 46.8998C89.9669 46.19 88.8556 46.12 85.5263 46.19C82.6679 46.2355 79.8366 46.2177 77.4537 46.2026C76.415 46.196 75.4616 46.19 74.6281 46.19C74.5402 46.19 74.4559 46.1551 74.3937 46.0929Z" fill="#FAB33F"/>
</g>
</g>
<defs>
<filter id="filter0_d_1704_9928" x="0" y="0" width="150" height="150" filterUnits="userSpaceOnUse" color-interpolation-filters="sRGB">
<feFlood flood-opacity="0" result="BackgroundImageFix"/>
<feColorMatrix in="SourceAlpha" type="matrix" values="0 0 0 0 0 0 0 0 0 0 0 0 0 0 0 0 0 0 127 0" result="hardAlpha"/>
<feOffset dy="30"/>
<feGaussianBlur stdDeviation="20"/>
<feColorMatrix type="matrix" values="0 0 0 0 0 0 0 0 0 0 0 0 0 0 0 0 0 0 0.05 0"/>
<feBlend mode="normal" in2="BackgroundImageFix" result="effect1_dropShadow_1704_9928"/>
<feBlend mode="normal" in="SourceGraphic" in2="effect1_dropShadow_1704_9928" result="shape"/>
</filter>
<clipPath id="clip0_1704_9928">
<rect width="30" height="30" fill="white" transform="translate(60 30)"/>
</clipPath>
</defs>
</svg>
