<svg width="33" height="25" viewBox="0 0 33 25" fill="none" xmlns="http://www.w3.org/2000/svg">
<path d="M7.65598 24.904C9.47465 24.904 11.0586 24.2587 12.408 22.968C13.7573 21.6187 14.432 19.712 14.432 17.248C14.432 13.4933 13.3466 10.0613 11.176 6.952C8.94665 3.84267 5.22131 1.52534 -1.90735e-05 2.80033e-06L-1.87504e-05 3.696C5.57331 5.51467 8.35998 8.15467 8.35998 11.616C8.35998 12.496 8.03731 13.1707 7.39198 13.64C6.74665 14.1093 6.01331 14.5493 5.19198 14.96C4.31198 15.3707 3.54931 15.928 2.90398 16.632C2.25865 17.336 1.93598 18.3627 1.93598 19.712C1.93598 21.4133 2.49331 22.704 3.60798 23.584C4.66398 24.464 6.01331 24.904 7.65598 24.904ZM25.256 24.904C27.0747 24.904 28.6587 24.2587 30.008 22.968C31.3573 21.6187 32.032 19.712 32.032 17.248C32.032 13.4933 30.9466 10.0613 28.776 6.952C26.5466 3.84267 22.8213 1.52534 17.6 1.26169e-06L17.6 3.696C23.1733 5.51467 25.96 8.15467 25.96 11.616C25.96 12.496 25.6373 13.1707 24.992 13.64C24.3467 14.1093 23.6133 14.5493 22.792 14.96C21.912 15.3707 21.1493 15.928 20.504 16.632C19.8586 17.336 19.536 18.3627 19.536 19.712C19.536 21.4133 20.0933 22.704 21.208 23.584C22.264 24.464 23.6133 24.904 25.256 24.904Z" fill="#EEEEEE"/>
</svg>
